<svg width="42" height="42" viewBox="0 0 42 42" fill="none" xmlns="http://www.w3.org/2000/svg">
<path d="M6 16.8571C6 13.0568 6 11.1566 6.7396 9.70506C7.39017 8.42825 8.42825 7.39017 9.70506 6.7396C11.1566 6 13.0568 6 16.8571 6H25.1429C28.9432 6 30.8434 6 32.2949 6.7396C33.5717 7.39017 34.6098 8.42825 35.2604 9.70506C36 11.1566 36 13.0568 36 16.8571V25.1429C36 28.9432 36 30.8434 35.2604 32.2949C34.6098 33.5717 33.5717 34.6098 32.2949 35.2604C30.8434 36 28.9432 36 25.1429 36H16.8571C13.0568 36 11.1566 36 9.70506 35.2604C8.42825 34.6098 7.39017 33.5717 6.7396 32.2949C6 30.8434 6 28.9432 6 25.1429V16.8571Z" fill="#5B98F4" stroke="#5B98F4" stroke-width="2"/>
<path d="M21.6929 14.822L17.9496 21.1588L21.9544 27.8877C22.0376 28.0403 21.9544 28.074 21.8337 28.074H18.976C18.7747 28.074 18.6338 28.0667 18.5534 27.9291C18.2847 27.3924 18.0165 26.8591 17.7483 26.3293C17.4798 25.7997 17.1947 25.2596 16.8931 24.709C16.5911 24.1588 16.2926 23.6016 15.9975 23.0371C15.729 23.5876 15.4304 24.138 15.1421 24.6884C14.8535 25.2389 14.5684 25.7859 14.2868 26.3293C14.0051 26.8731 13.7166 27.4132 13.4215 27.9496C13.3677 28.0735 13.2737 28.0862 13.1397 28.0862H10.3826C10.2743 28.0862 10.2612 28.0048 10.3222 27.9084L14.2063 21.3652L10.4228 14.8013C10.3541 14.7076 10.4132 14.6079 10.5235 14.6155H13.3611C13.4839 14.6086 13.5925 14.6549 13.6629 14.76C13.9044 15.3105 14.1728 15.861 14.4679 16.4113C14.7629 16.9618 15.0615 17.5055 15.3635 18.0419C15.6654 18.5786 15.9639 19.1221 16.2188 19.6726C16.487 19.1085 16.7587 18.5581 17.0339 18.0213C17.3088 17.4847 17.5905 16.9446 17.8791 16.401C18.1675 15.8576 18.4459 15.3175 18.7143 14.7807C18.75 14.663 18.8352 14.6033 18.9558 14.6155H21.5921C21.6929 14.6155 21.7344 14.753 21.6929 14.822Z" fill="white" stroke="#5B98F4"/>
<path d="M27.4683 28.342C25.6935 28.3697 23.8345 27.6389 22.9 26.0199C22.4438 25.2425 22.2156 24.269 22.2158 23.0991C22.2081 22.1518 22.4442 21.2191 22.9 20.3952C24.0761 18.2928 26.4454 17.5051 28.696 17.7119V13.6456C28.696 13.5494 28.7363 13.5011 28.8167 13.5011H31.3525C31.4218 13.4909 31.4831 13.5538 31.4732 13.6249V25.8238C31.4732 26.327 31.5231 26.8286 31.5538 27.3305C31.5587 27.4163 31.5091 27.5011 31.4329 27.537C30.1801 28.0729 28.8244 28.3358 27.4683 28.342ZM28.696 25.7824V20.1475C26.8578 19.6368 25.0733 21.0369 25.0735 22.9753C25.0299 24.9794 26.7574 26.364 28.696 25.7824Z" fill="white" stroke="#5B98F4"/>
</svg>
