<svg width="42" height="42" viewBox="0 0 42 42" fill="none" xmlns="http://www.w3.org/2000/svg">
<path d="M31.6665 5H10.3333C7.39999 5 5 7.39999 5 10.3333V31.6666C5 34.5999 7.39999 36.9999 10.3333 36.9999H31.6666C34.5999 36.9999 36.9999 34.5999 36.9999 31.6666V10.3333C36.9999 7.39999 34.5999 5 31.6665 5ZM20.3317 21.2832C19.221 22.3939 17.4754 22.9155 15.5033 22.9155C14.9819 22.9155 14.506 22.8926 14.1432 22.8246V28.5824H11.3779V13.508C12.3752 13.3267 13.7581 13.1906 15.6393 13.1906C17.6796 13.1906 19.1757 13.6213 20.1505 14.4375C21.0573 15.1856 21.6466 16.3869 21.6466 17.815C21.6465 19.2659 21.1932 20.4671 20.3317 21.2832ZM26.1337 28.8093C24.7963 28.8093 23.5949 28.4918 22.7788 28.0384L23.3228 26.021C23.9575 26.4063 25.159 26.8144 26.1564 26.8144C27.3804 26.8144 27.9246 26.3157 27.9246 25.5902C27.9246 24.8424 27.4713 24.4568 26.1111 23.9809C23.9574 23.2327 23.051 22.054 23.0736 20.7619C23.0736 18.8124 24.683 17.2937 27.2445 17.2937C28.4687 17.2937 29.5341 17.6111 30.1686 17.951L29.6246 19.9231C29.1486 19.6512 28.2644 19.2885 27.2897 19.2885C26.2923 19.2885 25.7483 19.7645 25.7483 20.4445C25.7483 21.1473 26.2697 21.4874 27.6752 21.9861C29.6699 22.7114 30.5994 23.7314 30.622 25.3637C30.622 27.3585 29.058 28.8093 26.1337 28.8093ZM18.8583 17.9283C18.8583 19.7192 17.5887 20.7392 15.5033 20.7392C14.9367 20.7392 14.4833 20.7166 14.1432 20.6259V15.4575C14.438 15.3896 14.982 15.3215 15.7528 15.3215C17.6796 15.3215 18.8583 16.2283 18.8583 17.9283Z" fill="#5B98F4" stroke="#5B98F4" stroke-width="0.00064"/>
</svg>
