<svg width="42" height="42" viewBox="0 0 42 42" fill="none" xmlns="http://www.w3.org/2000/svg">
<path fill-rule="evenodd" clip-rule="evenodd" d="M9.6374 24.2029C9.2472 25.1402 9.02921 26.1402 8.9939 27.1549C9.04774 27.7807 9.26117 28.3822 9.61377 28.902C10.2773 29.6702 11.0752 30.311 11.9684 30.7931L17.7374 34.6339C18.4473 35.1988 19.2455 35.6428 20.0999 35.9479C20.6546 36.0799 21.2326 36.0799 21.7874 35.9479C22.6475 35.6465 23.4521 35.2056 24.169 34.6429L29.9999 30.7999C30.9022 30.3164 31.7092 29.6729 32.3815 28.9009C32.7366 28.3783 32.9499 27.7723 33.0003 27.1425C32.962 26.1196 32.7382 25.1121 32.3399 24.1691L27.2403 8.11987C27.1264 7.6001 26.9207 7.10483 26.6328 6.65737C26.4231 6.40255 26.1521 6.20514 25.8453 6.08362C25.3326 5.94462 24.7993 5.89815 24.2703 5.94637H17.6305C17.1013 5.89827 16.5678 5.9459 16.0555 6.087C15.748 6.20827 15.4768 6.40663 15.268 6.663C14.9813 7.11047 14.7775 7.60586 14.6661 8.1255L9.6374 24.2029ZM24.5324 9.35287C24.7696 9.72998 24.9376 10.1464 25.0285 10.5825L29.407 24.9645C27.7624 24.1115 25.9972 23.5147 24.1724 23.1949L21.3273 13.5649C21.3098 13.508 21.2789 13.4561 21.2373 13.4136C21.1956 13.3711 21.1444 13.3392 21.0879 13.3206C21.0313 13.302 20.9712 13.2972 20.9124 13.3066C20.8537 13.316 20.798 13.3394 20.7501 13.3747C20.6859 13.4217 20.6389 13.4885 20.6163 13.5649L17.8038 23.1915C15.9703 23.5107 14.1969 24.1098 12.5455 24.9679L16.942 10.5859C17.032 10.1489 17.2005 9.73195 17.4393 9.35512C17.6134 9.14141 17.8386 8.97504 18.094 8.87137C18.5244 8.75505 18.9721 8.71695 19.4159 8.75887H22.558C23.0022 8.71691 23.4503 8.75501 23.881 8.87137C24.1372 8.97534 24.3629 9.14255 24.5369 9.35737L24.5324 9.35287ZM21.1428 26.6925C22.4967 26.7709 23.8393 26.4064 24.9678 25.6541C25.096 26.0579 25.1415 26.4834 25.1015 26.9052C25.0615 27.327 24.9368 27.7364 24.7349 28.1089C24.3198 28.8144 23.7174 29.3911 22.9945 29.775C22.2363 30.2565 21.5838 30.675 21.5838 31.7854C21.5828 32.1416 21.6632 32.4932 21.8189 32.8136C21.3076 32.6013 20.8706 32.2421 20.5633 31.7816C20.2559 31.3211 20.0919 30.7798 20.092 30.2261V30.1575C20.092 29.3891 20.092 28.443 19.0098 28.443C18.8589 28.4429 18.7095 28.4723 18.5699 28.5296C18.289 28.6459 18.0657 28.8688 17.9489 29.1495C17.8909 29.2889 17.8607 29.4384 17.86 29.5894C17.1182 28.7793 16.7198 27.7129 16.7485 26.6149C16.7433 26.1396 16.8096 25.6663 16.9454 25.2109C17.3954 26.0625 19.1054 26.6959 21.1428 26.6959V26.6925Z" fill="#5B98F4" stroke="#5B98F4" stroke-width="0.00064"/>
</svg>
