<svg width="42" height="42" viewBox="0 0 42 42" fill="none" xmlns="http://www.w3.org/2000/svg">
<path d="M18.3938 21.6312C18.1563 21.525 17.8313 21.4687 17.4062 21.4625H14.9688V24.1H17.375C17.8063 24.1 18.1375 24.0437 18.375 23.925C18.8125 23.7062 19.025 23.3 19.025 22.6937C19.025 22.1812 18.8125 21.825 18.3938 21.6312Z" fill="#5B98F4"/>
<path d="M26.5064 20.2813C26.2001 20.0188 25.8189 19.8875 25.3689 19.8875C24.8814 19.8875 24.5001 20.025 24.2251 20.3063C23.9564 20.5875 23.7876 20.9625 23.7126 21.4375H27.0064C26.9814 20.9313 26.8064 20.55 26.5064 20.2813Z" fill="#5B98F4"/>
<path d="M18.4249 19.5812C18.6936 19.4187 18.8249 19.125 18.8249 18.7125C18.8249 18.25 18.6499 17.95 18.2936 17.8C17.9874 17.7 17.5999 17.6437 17.1249 17.6437H14.9749V19.825H17.3749C17.8061 19.8312 18.1499 19.75 18.4249 19.5812Z" fill="#5B98F4"/>
<path d="M5 5V37H37V5H5ZM23.225 16.3938H27.4625V17.625H23.225V16.3938ZM20.6687 24.4125C20.4812 24.7188 20.25 24.9813 19.9688 25.1875C19.6562 25.4313 19.2813 25.5938 18.85 25.6875C18.4188 25.775 17.9562 25.8188 17.45 25.8188H13V15.9312H17.7812C18.9875 15.95 19.8438 16.3 20.3438 16.9875C20.6438 17.4063 20.7937 17.9125 20.7937 18.5C20.7937 19.1 20.6437 19.5875 20.3375 19.9563C20.1687 20.1625 19.9125 20.35 19.5813 20.5188C20.0875 20.7063 20.4688 20.9937 20.725 21.3937C20.9813 21.7937 21.1125 22.275 21.1125 22.8438C21.1125 23.4187 20.9625 23.9438 20.6687 24.4125ZM29 22.7H23.675C23.7062 23.4313 23.9563 23.95 24.4375 24.2437C24.7312 24.425 25.0812 24.5187 25.4937 24.5187C25.925 24.5187 26.2812 24.4062 26.5562 24.1812C26.7062 24.0625 26.8375 23.8937 26.95 23.675H28.9C28.85 24.1062 28.6125 24.55 28.1938 25C27.5375 25.7125 26.625 26.0688 25.4438 26.0688C24.4688 26.0688 23.6125 25.7688 22.8687 25.1688C22.125 24.5688 21.75 23.5937 21.75 22.2437C21.75 20.975 22.0875 20.0063 22.7563 19.3313C23.4313 18.6563 24.3 18.3188 25.3687 18.3188C26.0062 18.3188 26.5812 18.4313 27.0875 18.6625C27.6 18.8875 28.0188 19.25 28.35 19.7437C28.65 20.175 28.8437 20.6813 28.9312 21.2563C28.9875 21.5875 29.0063 22.0688 29 22.7Z" fill="#5B98F4"/>
</svg>
