<svg width="42" height="42" viewBox="0 0 42 42" fill="none" xmlns="http://www.w3.org/2000/svg">
<path fill-rule="evenodd" clip-rule="evenodd" d="M10.8939 6.45755C8.92111 6.45755 7.46136 8.18424 7.5267 10.0568C7.5894 11.8559 7.50795 14.1859 6.92135 16.086C6.333 17.9916 5.33794 19.1989 3.71265 19.3539V21.1037C5.33794 21.2587 6.333 22.4659 6.92135 24.3717C7.50795 26.2717 7.5894 28.6017 7.5267 30.4008C7.46136 32.2731 8.92111 34 10.8942 34H31.1086C33.0815 34 34.541 32.2734 34.4756 30.4008C34.4129 28.6017 34.4943 26.2717 35.0809 24.3717C35.6695 22.4659 36.662 21.2587 38.2873 21.1037V19.3539C36.662 19.1989 35.6695 17.9916 35.0809 16.086C34.4943 14.1861 34.4129 11.8559 34.4756 10.0568C34.541 8.18452 33.0815 6.45755 31.1086 6.45755H10.8939ZM27.1531 23.4117C27.1531 25.9902 25.2297 27.554 22.0381 27.554H16.6049C16.4495 27.554 16.3004 27.4922 16.1905 27.3823C16.0806 27.2723 16.0189 27.1234 16.0189 26.9679V13.4897C16.0189 13.3343 16.0806 13.1852 16.1905 13.0753C16.3004 12.9654 16.4495 12.9037 16.6049 12.9037H22.0071C24.6683 12.9037 26.4149 14.3452 26.4149 16.5586C26.4149 18.1121 25.2401 19.503 23.743 19.7465V19.8277C25.7809 20.0513 27.1531 21.4624 27.1531 23.4117ZM21.4457 14.7613H18.3477V19.1371H20.9569C22.9739 19.1371 24.0862 18.3249 24.0862 16.873C24.0862 15.5126 23.1298 14.7613 21.4457 14.7613ZM18.3477 20.8734V25.6957H21.5596C23.6596 25.6957 24.7721 24.853 24.7721 23.2693C24.7721 21.6854 23.6285 20.8732 21.4245 20.8732L18.3477 20.8734Z" fill="#5B98F4"/>
</svg>
