<svg width="42" height="42" viewBox="0 0 42 42" fill="none" xmlns="http://www.w3.org/2000/svg">
<g clip-path="url(#clip0_511_225)">
<path d="M35.5786 27.8557C35.5887 28.3608 35.471 28.86 35.2366 29.3058C35.1791 29.412 35.1141 29.5138 35.0422 29.6105L20.9961 21L34.1651 11.6237C34.6026 11.8689 34.9667 12.2294 35.2192 12.667C35.4643 13.1194 35.5874 13.6295 35.576 14.1456C35.5786 18.7161 35.5786 27.8557 35.5786 27.8557Z" fill="#5B98F4"/>
<path d="M35.2193 12.667L6.75428 29.3058C6.52125 28.8601 6.40444 28.3614 6.41496 27.8571V14.1442C6.41496 13.0343 6.87766 12.18 7.82587 11.6223C10.1327 10.2661 17.8699 5.76498 19.4163 4.84135C20.453 4.21835 21.4683 4.19659 22.5144 4.81007C26.3957 7.08444 30.2793 9.35563 34.1651 11.6237C34.6026 11.8689 34.9668 12.2294 35.2193 12.667Z" fill="#5B98F4"/>
<path d="M35.5761 14.1456C35.5873 13.6297 35.4647 13.1198 35.2207 12.667C34.9677 12.2293 34.6031 11.8689 34.1652 11.6237C30.2829 9.35022 26.3993 7.07993 22.5144 4.81282C21.4683 4.19933 20.4544 4.2211 19.415 4.8441C17.8699 5.765 10.1327 10.2661 7.82725 11.6223C6.8777 12.18 6.41634 13.0343 6.41634 14.1443V27.8558C6.40654 28.3608 6.52427 28.86 6.75834 29.3058C7.01138 29.7569 7.38279 30.1279 7.83127 30.3777C10.1367 31.738 17.8753 36.2337 19.4203 37.1587C20.4597 37.7817 21.4737 37.8034 22.5211 37.1899C26.4025 34.9156 30.286 32.6444 34.1719 30.3764C34.6204 30.1266 34.9918 29.7555 35.2448 29.3045C35.4789 28.8586 35.5966 28.3594 35.5868 27.8544V14.1456H35.5761Z" fill="#5B98F4"/>
<path d="M21.5595 26.539C20.6011 26.5404 19.6598 26.2807 18.8341 25.787C18.0084 25.2934 17.3285 24.5839 16.8654 23.7328C16.8181 23.6475 16.7734 23.5605 16.7313 23.4716C16.16 22.2749 16.0412 20.9073 16.3974 19.6277C16.7537 18.3481 17.5601 17.2455 18.6642 16.5285C19.7682 15.8116 21.0931 15.5301 22.388 15.7375C23.6829 15.9449 24.8578 16.6267 25.6904 17.6537C25.7614 17.7408 25.8245 17.8319 25.8956 17.9258C25.9277 17.9707 25.9599 18.0156 25.9894 18.0618L30.6929 15.3141C30.5785 15.1273 30.4587 14.9459 30.3335 14.77C30.2678 14.6761 30.1994 14.5863 30.135 14.4979C28.5002 12.3439 26.1289 10.8894 23.4888 10.4213C20.8487 9.95317 18.1316 10.5055 15.8732 11.9692C13.6148 13.4329 11.9792 15.7018 11.289 18.3284C10.5987 20.955 10.904 23.7486 12.1445 26.1581C12.1901 26.2452 12.2371 26.3309 12.2786 26.4166C13.1897 28.0469 14.5009 29.4107 16.085 30.3755C17.669 31.3403 19.472 31.8733 21.3191 31.9229C23.1662 31.9724 24.9945 31.5368 26.6266 30.6583C28.2587 29.7798 29.6391 28.4882 30.6339 26.909L26.035 24.0892C25.5481 24.8422 24.8841 25.4604 24.1027 25.8881C23.3214 26.3158 22.4474 26.5395 21.5595 26.539Z" fill="white"/>
</g>
<defs>
<clipPath id="clip0_511_225">
<rect width="42" height="42" fill="white"/>
</clipPath>
</defs>
</svg>
