<svg width="42" height="42" viewBox="0 0 42 42" fill="none" xmlns="http://www.w3.org/2000/svg">
<rect x="6" y="6" width="30" height="30" rx="15" fill="#5B98F4"/>
<path d="M12.7241 13.1552H14.0603C16.1409 13.1552 18.1363 13.9817 19.6075 15.4529C21.0787 16.9241 21.9052 18.9194 21.9052 21C21.9052 23.0806 21.0787 25.0759 19.6075 26.5471C18.1363 28.0183 16.1409 28.8448 14.0603 28.8448H12.7241V25.3966H14.0603C15.2264 25.3966 16.3446 24.9334 17.1692 24.1088C17.9937 23.2843 18.4569 22.166 18.4569 21C18.4569 19.834 17.9937 18.7157 17.1692 17.8912C16.3446 17.0667 15.2264 16.6035 14.0603 16.6035H12.7241V13.1552ZM18.9743 13.1552H24.4915C25.4006 13.1552 26.2909 13.4142 27.0581 13.9018C27.8253 14.3895 28.4377 15.0856 28.8236 15.9087C29.2095 16.7319 29.3529 17.6479 29.237 18.5496C29.1212 19.4512 28.7508 20.3012 28.1693 21C28.7508 21.6988 29.1212 22.5488 29.237 23.4505C29.3529 24.3521 29.2095 25.2682 28.8236 26.0913C28.4377 26.9144 27.8253 27.6105 27.0581 28.0982C26.2909 28.5859 25.4006 28.8448 24.4915 28.8448H18.9743C20.3319 27.9944 21.4456 26.8063 22.2064 25.3966H24.4914C24.6668 25.3966 24.8406 25.362 25.0027 25.2948C25.1648 25.2277 25.3121 25.1293 25.4362 25.0052C25.5603 24.8811 25.6587 24.7338 25.7259 24.5717C25.793 24.4096 25.8276 24.2358 25.8276 24.0604C25.8276 23.8849 25.793 23.7111 25.7259 23.549C25.6587 23.3869 25.5603 23.2396 25.4362 23.1155C25.3121 22.9914 25.1648 22.893 25.0027 22.8259C24.8406 22.7587 24.6668 22.7241 24.4914 22.7241H23.1552C23.3711 21.5849 23.3711 20.4151 23.1552 19.2759H24.4914C24.6668 19.2759 24.8406 19.2413 25.0027 19.1742C25.1648 19.107 25.3121 19.0086 25.4362 18.8845C25.5603 18.7604 25.6587 18.6131 25.7259 18.451C25.793 18.2889 25.8276 18.1151 25.8276 17.9397C25.8276 17.7642 25.793 17.5904 25.7259 17.4283C25.6587 17.2662 25.5603 17.1189 25.4362 16.9948C25.3121 16.8707 25.1648 16.7723 25.0027 16.7052C24.8406 16.638 24.6668 16.6035 24.4914 16.6035H22.2064C21.4456 15.1937 20.3319 14.0056 18.9743 13.1552Z" fill="white"/>
</svg>
