<svg width="42" height="42" viewBox="0 0 42 42" fill="none" xmlns="http://www.w3.org/2000/svg">
<path d="M21 6C12.7234 6 6 12.7235 6 21C6 29.2765 12.7234 36 21 36C29.2766 36 36 29.2765 36 21C36 12.7235 29.2766 6 21 6ZM21 7.30435C28.5716 7.30435 34.6957 13.4284 34.6957 21C34.6957 28.5716 28.5716 34.6957 21 34.6957C13.4284 34.6957 7.30435 28.5716 7.30435 21C7.30435 13.4284 13.4284 7.30435 21 7.30435ZM21 9.91304C18.4826 9.91304 16.4348 11.8488 16.4348 14.2273C16.4348 16.5399 18.5768 19.1632 20.5809 20.8471C20.7022 20.9489 20.8507 20.9987 21 20.9987C21.1493 20.9987 21.2984 20.9483 21.4191 20.8459C23.4232 19.162 25.5652 16.5399 25.5652 14.2273C25.5652 11.8495 23.5167 9.9137 21 9.91304ZM14.7585 21.0051C13.7372 21.0317 12.7874 21.2264 12.0288 21.6598C11.0577 22.2142 10.3614 23.13 10.0646 24.2354C9.74962 25.4093 9.93012 26.7022 10.5601 27.7829C11.4327 29.2803 12.992 30.1292 14.5572 30.1292C15.2701 30.1292 15.9845 29.9532 16.636 29.5814C18.6617 28.4225 19.8759 25.2519 20.3376 22.6699C20.3937 22.3575 20.2166 22.0489 19.9173 21.9413C18.3635 21.3829 16.4606 20.9608 14.7585 21.0051ZM27.2428 21.0051C25.5408 20.9608 23.6382 21.3829 22.084 21.9413C21.7846 22.0489 21.6063 22.3575 21.6624 22.6699C22.1235 25.2519 23.3383 28.4238 25.364 29.5814C26.0148 29.9532 26.7293 30.1292 27.4428 30.1292C29.0073 30.1292 30.5666 29.2809 31.4412 27.7829C32.0712 26.7022 32.251 25.41 31.9367 24.2354C31.6406 23.1293 30.9423 22.2148 29.9712 21.6598C29.2126 21.2264 28.264 21.0317 27.2428 21.0051Z" fill="#5B98F4"/>
</svg>
