<svg width="42" height="42" viewBox="0 0 42 42" fill="none" xmlns="http://www.w3.org/2000/svg">
<path d="M21 37C29.8366 37 37 29.8366 37 21C37 12.1634 29.8366 5 21 5C12.1634 5 5 12.1634 5 21C5 29.8366 12.1634 37 21 37Z" fill="#5B98F4"/>
<path d="M23.2857 10.7143H21V13H23.2857V10.7143Z" fill="white"/>
<path d="M14.1428 14.1429H16.4285V16.4286H14.1428V14.1429Z" fill="white"/>
<path d="M9.5733 22.0759C9.76861 25.3916 11.7433 30.1428 18.7144 30.1428C26.4858 30.1428 29.9524 24.4286 30.7144 21.5714C31.6667 21.5714 33.8001 21 34.7144 18.7143C34.143 18.1428 31.8572 18.1428 30.7144 18.7143C30.7144 17.8 30.143 15.8571 29.0001 15.2857C28.2382 16.0476 27.0572 18.0286 28.4287 19.8571C27.8572 21 26.3335 21 25.5715 21H10.6491C10.044 21 9.53771 21.4718 9.5733 22.0759Z" fill="white"/>
<path d="M13.0001 17.5714H10.7144V19.8572H13.0001V17.5714Z" fill="white"/>
<path d="M14.1428 17.5714H16.4285V19.8572H14.1428V17.5714Z" fill="white"/>
<path d="M19.8572 17.5714H17.5715V19.8572H19.8572V17.5714Z" fill="white"/>
<path d="M21 17.5714H23.2857V19.8572H21V17.5714Z" fill="white"/>
<path d="M26.7142 17.5714H24.4285V19.8572H26.7142V17.5714Z" fill="white"/>
<path d="M19.8572 14.1429H17.5715V16.4286H19.8572V14.1429Z" fill="white"/>
<path d="M21 14.1429H23.2857V16.4286H21V14.1429Z" fill="white"/>
</svg>
