<svg width="42" height="42" viewBox="0 0 42 42" fill="none" xmlns="http://www.w3.org/2000/svg">
<path d="M37.0073 21.8128C37.0073 19.1205 35.3343 16.7941 32.851 15.8792C32.9562 15.3101 33.0087 14.7326 33.0078 14.1539C33.0078 9.16119 28.9562 5.10962 23.9635 5.10962C21.062 5.10962 18.3435 6.495 16.6444 8.8737C15.8079 8.22017 14.7885 7.88039 13.7167 7.88039C11.0766 7.88039 8.90705 10.0238 8.90705 12.6901C8.90705 13.2652 9.01163 13.8403 9.19453 14.3631C6.68523 15.2257 4.98608 17.6305 4.98608 20.2967C4.98608 22.9891 6.65908 25.3417 9.16838 26.2566C9.06392 26.8055 9.01163 27.3806 9.01163 27.9817C9.01163 32.9483 13.0632 37 18.0298 37C20.9574 37 23.6499 35.5885 25.3489 33.2359C26.1853 33.8893 27.2309 34.2554 28.3027 34.2554C30.9428 34.2554 33.1124 32.1119 33.1124 29.4457C33.1124 28.8706 33.0078 28.2955 32.8249 27.7727C35.2819 26.884 37.0072 24.4791 37.0072 21.8128H37.0073Z" fill="white"/>
<path d="M17.507 18.8067L24.6432 22.0743L31.8577 15.7485C31.9629 15.2235 32.0154 14.6893 32.0145 14.1539C32.0145 9.71027 28.4073 6.10294 23.9635 6.10294C21.2972 6.10294 18.814 7.40988 17.3241 9.60555L16.1216 15.8269L17.507 18.8067Z" fill="#5B98F4"/>
<path d="M10.1094 26.3611C10.0049 26.8839 9.95264 27.4329 9.95264 27.9818C9.95264 32.4255 13.586 36.059 18.0298 36.059C20.7222 36.059 23.2055 34.7259 24.7215 32.5301L25.8978 26.3088L24.3033 23.2766L17.141 20.0092L10.1094 26.3611Z" fill="#5B98F4"/>
<path d="M10.0573 13.997L14.9455 15.1472L16.0432 9.5794C15.3637 9.0566 14.5533 8.79526 13.6907 8.79526C11.5733 8.79526 9.82202 10.5204 9.82202 12.6639C9.82202 13.1083 9.90059 13.5788 10.0573 13.997Z" fill="#5B98F4"/>
<path d="M9.63879 15.1732C7.44312 15.8791 5.927 17.9964 5.927 20.2967C5.927 22.5448 7.31239 24.5576 9.4036 25.3417L16.2784 19.1204L15.0236 16.4282L9.63879 15.1732Z" fill="#5B98F4"/>
<path d="M25.9763 32.5039C26.6559 33.0268 27.4663 33.3143 28.3027 33.3143C30.4201 33.3143 32.1714 31.5892 32.1714 29.4457C32.1714 28.9751 32.093 28.5307 31.9362 28.1124L27.0481 26.9624L25.9763 32.5039Z" fill="#5B98F4"/>
<path d="M26.9697 25.6814L32.3544 26.9362C34.5501 26.2044 36.0662 24.1131 36.0662 21.8128C36.0662 19.5647 34.6809 17.5782 32.5896 16.7679L25.532 22.9368L26.9697 25.6814Z" fill="#5B98F4"/>
</svg>
