<svg width="45" height="45" viewBox="0 0 45 45" fill="none" xmlns="http://www.w3.org/2000/svg">
<path fill-rule="evenodd" clip-rule="evenodd" d="M14.6622 8C12.1306 8 9.84138 8.63272 8.17977 10.1756C6.50241 11.7332 5.64868 14.0462 5.64868 17.0135V27.9865C5.64868 30.9539 6.50241 33.2668 8.17977 34.8244C9.84138 36.3673 12.1306 37 14.6622 37H30.3379C32.8695 37 35.1588 36.3673 36.8202 34.8244C38.4977 33.2668 39.3514 30.9539 39.3514 27.9865V17.0135C39.3514 14.0462 38.4977 11.7332 36.8202 10.1756C35.1588 8.63272 32.8695 8 30.3379 8H14.6622ZM33.8312 16.7977C34.3449 16.4007 34.4396 15.6623 34.0425 15.1485C33.6456 14.6347 32.9073 14.54 32.3934 14.9371L23.698 21.656C22.9924 22.2014 22.0075 22.2014 21.3018 21.656L12.6065 14.9371C12.0927 14.54 11.3543 14.6347 10.9573 15.1485C10.5603 15.6623 10.655 16.4007 11.1688 16.7977L19.8642 23.5167C21.4167 24.7162 23.5832 24.7162 25.1357 23.5167L33.8312 16.7977Z" fill="#5B98F4"/>
</svg>
