<svg width="42" height="42" viewBox="0 0 42 42" fill="none" xmlns="http://www.w3.org/2000/svg">
<path fill-rule="evenodd" clip-rule="evenodd" d="M15.3669 16.6339C12.9555 16.6339 11.0008 18.5884 11.0008 20.9997C11.0008 23.4111 12.9555 25.3659 15.3669 25.3659H19.733V21.0877C19.7326 21.0585 19.7324 21.0291 19.7324 20.9997C19.7324 20.9704 19.7326 20.941 19.733 20.9118V16.6339H15.3669ZM19.733 14.0987H15.3669C12.9555 14.0987 11.0008 12.1439 11.0008 9.7326C11.0008 7.32127 12.9555 5.36649 15.3669 5.36649H19.733V14.0987ZM22.2681 5.36649V14.0987L26.6332 14.0984C29.0444 14.0984 30.9999 12.1439 30.9999 9.7326C30.9999 7.32127 29.0451 5.36649 26.6337 5.36649H22.2681ZM26.6333 16.6336C24.2455 16.6338 22.3055 18.5509 22.2681 20.9297V21.0696C22.3055 23.4488 24.2457 25.3659 26.6337 25.3659C29.0451 25.3659 30.9999 23.4111 30.9999 20.9997C30.9999 18.5884 29.0446 16.6336 26.6333 16.6336ZM15.3669 27.9011C12.9556 27.9011 11.0005 29.8562 11.0005 32.2676C11.0005 34.6791 12.9553 36.6339 15.3666 36.6339C17.778 36.6339 19.7328 34.6791 19.7328 32.2676L19.733 27.9011H15.3669Z" fill="#5B98F4"/>
</svg>
