<svg width="42" height="42" viewBox="0 0 42 42" fill="none" xmlns="http://www.w3.org/2000/svg">
<path d="M5.66898 22.6151C4.77701 21.7231 4.77701 20.2769 5.66898 19.3849L19.3849 5.66898C20.2769 4.77701 21.7231 4.77701 22.6151 5.66898L36.331 19.3849C37.223 20.2769 37.223 21.7231 36.331 22.6151L22.6151 36.331C21.7231 37.223 20.2769 37.223 19.3849 36.331L5.66898 22.6151Z" fill="#5B98F4"/>
<path d="M16.5986 8.49887L15.2097 9.88783L18.797 13.4752C18.6519 13.7865 18.5709 14.1337 18.5709 14.4999C18.5709 15.5394 19.224 16.4264 20.1423 16.7728V25.5484C19.224 25.8948 18.5709 26.7817 18.5709 27.8213C18.5709 29.1625 19.6582 30.2499 20.9994 30.2499C22.3407 30.2499 23.428 29.1625 23.428 27.8213C23.428 26.8789 22.8912 26.0617 22.1066 25.6592V16.7848L25.5358 20.214C25.3977 20.519 25.3209 20.8576 25.3209 21.2142C25.3209 22.5554 26.4083 23.6428 27.7495 23.6428C29.0908 23.6428 30.1781 22.5554 30.1781 21.2142C30.1781 19.8729 29.0908 18.7856 27.7495 18.7856C27.4888 18.7856 27.2379 18.8266 27.0024 18.9026L23.3196 15.2198C23.3901 14.9923 23.428 14.7505 23.428 14.4999C23.428 13.1586 22.3407 12.0713 20.9994 12.0713C20.7488 12.0713 20.5071 12.1093 20.2796 12.1798L16.5986 8.49887Z" fill="white"/>
</svg>
