<svg width="42" height="42" viewBox="0 0 42 42" fill="none" xmlns="http://www.w3.org/2000/svg">
<path d="M19.5607 23.601C19.3732 23.601 19.1933 23.5266 19.0606 23.3942L18.0052 22.3416C17.9374 22.2763 17.8834 22.1983 17.8461 22.1119C17.8089 22.0255 17.7892 21.9326 17.7883 21.8386C17.7873 21.7445 17.8051 21.6512 17.8406 21.5641C17.8761 21.477 17.9286 21.3979 17.995 21.3313C18.0614 21.2647 18.1404 21.212 18.2274 21.1762C18.3144 21.1405 18.4076 21.1224 18.5017 21.1231C18.5957 21.1238 18.6887 21.1432 18.7752 21.1802C18.8617 21.2172 18.9399 21.271 19.0053 21.3386L19.5607 21.8925L21.2337 20.2208C21.3666 20.0878 21.5468 20.013 21.7347 20.0129C21.9227 20.0128 22.103 20.0873 22.236 20.2201C22.369 20.3529 22.4438 20.5332 22.444 20.7211C22.4441 20.9091 22.3696 21.0894 22.2367 21.2224L20.0622 23.3942C19.9287 23.5264 19.7485 23.6007 19.5607 23.601ZM32.8107 23.3927L34.9839 21.2224C35.1129 21.0888 35.1843 20.9099 35.1827 20.7242C35.1811 20.5385 35.1066 20.3608 34.9753 20.2295C34.844 20.0981 34.6663 20.0236 34.4806 20.022C34.2949 20.0204 34.1159 20.0918 33.9823 20.2208L32.3092 21.8925L31.7539 21.3386C31.6885 21.271 31.6102 21.2172 31.5238 21.1802C31.4373 21.1432 31.3443 21.1238 31.2503 21.1231C31.1562 21.1224 31.063 21.1405 30.976 21.1762C30.889 21.212 30.81 21.2647 30.7436 21.3313C30.6772 21.3979 30.6247 21.477 30.5892 21.5641C30.5537 21.6512 30.5359 21.7445 30.5368 21.8386C30.5378 21.9326 30.5575 22.0255 30.5947 22.1119C30.6319 22.1983 30.686 22.2763 30.7537 22.3416L31.8106 23.3942C31.8761 23.4601 31.9541 23.5124 32.04 23.5481C32.1259 23.5838 32.218 23.602 32.311 23.6019C32.404 23.6018 32.496 23.5832 32.5818 23.5473C32.6676 23.5114 32.7454 23.4589 32.8107 23.3927ZM10.4132 14.557L14.0357 12.3116C14.2402 12.185 14.4091 12.0085 14.5265 11.7986C14.644 11.5887 14.706 11.3524 14.7069 11.1119C14.7077 10.8714 14.6474 10.6346 14.5314 10.4239C14.4155 10.2132 14.2478 10.0355 14.0442 9.9075L10.4217 7.62667C10.2074 7.49166 9.96084 7.41658 9.70765 7.40926C9.45447 7.40193 9.20394 7.46262 8.98218 7.585C8.76041 7.70738 8.57552 7.88698 8.44674 8.1051C8.31797 8.32322 8.25003 8.57187 8.25 8.82517V13.3528C8.25042 13.6051 8.31814 13.8527 8.44617 14.0701C8.57421 14.2875 8.75792 14.4668 8.97837 14.5895C9.19881 14.7122 9.448 14.7739 9.70023 14.7682C9.95246 14.7625 10.1986 14.6896 10.4132 14.557ZM13.2891 11.106L9.66667 13.3528V8.82517L13.2891 11.106ZM38 21.7083C38 24.4425 35.7758 26.6667 33.0417 26.6667C31.8506 26.6644 30.7001 26.2338 29.8002 25.4535C28.9003 24.6733 28.311 23.5954 28.14 22.4167H25.1933C25.0223 23.5954 24.4331 24.6733 23.5331 25.4535C22.6332 26.2338 21.4827 26.6644 20.2917 26.6667C19.1005 26.6647 17.9499 26.2342 17.0499 25.4539C16.1499 24.6736 15.5607 23.5955 15.39 22.4167H14.5995C13.2225 22.4167 11.9787 21.8514 11.0833 20.9405V28.0833C11.0833 30.4265 12.9902 32.3333 15.3333 32.3333H15.39C15.7357 29.9349 17.7983 28.0833 20.2917 28.0833C23.0258 28.0833 25.25 30.3075 25.25 33.0417C25.25 35.7758 23.0258 38 20.2917 38C19.1005 37.998 17.9499 37.5675 17.0499 36.7872C16.1499 36.0069 15.5607 34.9288 15.39 33.75H15.3333C12.2082 33.75 9.66667 31.2085 9.66667 28.0833V18.0236C8.06795 17.6951 6.63139 16.8254 5.59915 15.5612C4.56691 14.2969 4.00212 12.7155 4 11.0833C4 7.17758 7.17758 4 11.0833 4C14.9891 4 18.1667 7.17758 18.1667 11.0833C18.1642 12.9492 17.4263 14.7388 16.1131 16.0643C14.7998 17.3897 13.0171 18.1441 11.1513 18.1638C11.3088 18.9627 11.7387 19.6822 12.3675 20.1994C12.9964 20.7167 13.7852 20.9996 14.5995 21H15.39C15.7357 18.6016 17.7983 16.75 20.2917 16.75C21.4828 16.752 22.6335 17.1825 23.5334 17.9628C24.4334 18.7431 25.0226 19.8212 25.1933 21H28.14C28.311 19.8213 28.9003 18.7434 29.8002 17.9631C30.7001 17.1829 31.8506 16.7523 33.0417 16.75C35.7758 16.75 38 18.9742 38 21.7083ZM16.75 33.0417C16.75 34.9938 18.3395 36.5833 20.2917 36.5833C22.2438 36.5833 23.8333 34.9938 23.8333 33.0417C23.8333 31.0895 22.2438 29.5 20.2917 29.5C18.3395 29.5 16.75 31.0895 16.75 33.0417ZM11.0833 16.75C14.2085 16.75 16.75 14.2085 16.75 11.0833C16.75 7.95817 14.2085 5.41667 11.0833 5.41667C7.95817 5.41667 5.41667 7.95817 5.41667 11.0833C5.41667 14.2085 7.95817 16.75 11.0833 16.75ZM23.8333 21.7083C23.8333 19.7562 22.2438 18.1667 20.2917 18.1667C18.3395 18.1667 16.75 19.7562 16.75 21.7083C16.75 23.6605 18.3395 25.25 20.2917 25.25C22.2438 25.25 23.8333 23.6605 23.8333 21.7083ZM36.5833 21.7083C36.5833 19.7562 34.9938 18.1667 33.0417 18.1667C31.0895 18.1667 29.5 19.7562 29.5 21.7083C29.5 23.6605 31.0895 25.25 33.0417 25.25C34.9938 25.25 36.5833 23.6605 36.5833 21.7083ZM18.1667 33.0417C18.1667 33.2295 18.2413 33.4097 18.3741 33.5425C18.507 33.6754 18.6871 33.75 18.875 33.75C19.0629 33.75 19.243 33.6754 19.3759 33.5425C19.5087 33.4097 19.5833 33.2295 19.5833 33.0417C19.5833 32.8538 19.5087 32.6736 19.3759 32.5408C19.243 32.408 19.0629 32.3333 18.875 32.3333C18.6871 32.3333 18.507 32.408 18.3741 32.5408C18.2413 32.6736 18.1667 32.8538 18.1667 33.0417ZM21 33.0417C21 33.2295 21.0746 33.4097 21.2075 33.5425C21.3403 33.6754 21.5205 33.75 21.7083 33.75C21.8962 33.75 22.0764 33.6754 22.2092 33.5425C22.342 33.4097 22.4167 33.2295 22.4167 33.0417C22.4167 32.8538 22.342 32.6736 22.2092 32.5408C22.0764 32.408 21.8962 32.3333 21.7083 32.3333C21.5205 32.3333 21.3403 32.408 21.2075 32.5408C21.0746 32.6736 21 32.8538 21 33.0417ZM38 33.0417C38 35.7758 35.7758 38 33.0417 38C31.8502 37.9976 30.6993 37.5666 29.7994 36.7858C28.8994 36.005 28.3104 34.9264 28.14 33.7472C28.1301 33.7486 28.1216 33.7542 28.1102 33.7542L27.3934 33.7783H27.3693C27.1867 33.7736 27.0129 33.6985 26.8843 33.5687C26.7557 33.4388 26.6823 33.2643 26.6793 33.0816C26.6764 32.8989 26.7442 32.7221 26.8686 32.5882C26.9929 32.4543 27.1642 32.3736 27.3467 32.3631L28.0635 32.339C28.089 32.3362 28.1131 32.3475 28.1372 32.3489C28.3048 31.1669 28.893 30.0849 29.7939 29.3014C30.6947 28.5179 31.8478 28.0855 33.0417 28.0833C35.7758 28.0833 38 30.3075 38 33.0417ZM36.5833 33.0417C36.5833 31.0895 34.9938 29.5 33.0417 29.5C31.0895 29.5 29.5 31.0895 29.5 33.0417C29.5 34.9938 31.0895 36.5833 33.0417 36.5833C34.9938 36.5833 36.5833 34.9938 36.5833 33.0417Z" fill="#5B98F4" stroke="#5B98F4" stroke-width="0.00064"/>
<path d="M19.5607 23.601C19.3732 23.601 19.1933 23.5266 19.0606 23.3942L18.0052 22.3416C17.9374 22.2763 17.8834 22.1983 17.8461 22.1119C17.8089 22.0255 17.7892 21.9326 17.7883 21.8386C17.7873 21.7445 17.8051 21.6512 17.8406 21.5641C17.8761 21.477 17.9286 21.3979 17.995 21.3313C18.0614 21.2647 18.1404 21.212 18.2274 21.1762C18.3144 21.1405 18.4076 21.1224 18.5017 21.1231C18.5957 21.1238 18.6887 21.1432 18.7752 21.1802C18.8617 21.2172 18.9399 21.271 19.0053 21.3386L19.5607 21.8925L21.2337 20.2208C21.3666 20.0878 21.5468 20.013 21.7347 20.0129C21.9227 20.0128 22.103 20.0873 22.236 20.2201C22.369 20.3529 22.4438 20.5332 22.444 20.7211C22.4441 20.9091 22.3696 21.0894 22.2367 21.2224L20.0622 23.3942C19.9287 23.5264 19.7485 23.6007 19.5607 23.601ZM32.8107 23.3927L34.9839 21.2224C35.1129 21.0888 35.1843 20.9099 35.1827 20.7242C35.1811 20.5385 35.1066 20.3608 34.9753 20.2295C34.844 20.0981 34.6663 20.0236 34.4806 20.022C34.2949 20.0204 34.1159 20.0918 33.9823 20.2208L32.3092 21.8925L31.7539 21.3386C31.6885 21.271 31.6102 21.2172 31.5238 21.1802C31.4373 21.1432 31.3443 21.1238 31.2503 21.1231C31.1562 21.1224 31.063 21.1405 30.976 21.1762C30.889 21.212 30.81 21.2647 30.7436 21.3313C30.6772 21.3979 30.6247 21.477 30.5892 21.5641C30.5537 21.6512 30.5359 21.7445 30.5368 21.8386C30.5378 21.9326 30.5575 22.0255 30.5947 22.1119C30.6319 22.1983 30.686 22.2763 30.7537 22.3416L31.8106 23.3942C31.8761 23.4601 31.9541 23.5124 32.04 23.5481C32.1259 23.5838 32.218 23.602 32.311 23.6019C32.404 23.6018 32.496 23.5832 32.5818 23.5473C32.6676 23.5114 32.7454 23.4589 32.8107 23.3927ZM10.4132 14.557L14.0357 12.3116C14.2402 12.185 14.4091 12.0085 14.5265 11.7986C14.644 11.5887 14.706 11.3524 14.7069 11.1119C14.7077 10.8714 14.6474 10.6346 14.5314 10.4239C14.4155 10.2132 14.2478 10.0355 14.0442 9.9075L10.4217 7.62667C10.2074 7.49166 9.96084 7.41658 9.70765 7.40926C9.45447 7.40193 9.20394 7.46262 8.98218 7.585C8.76041 7.70738 8.57552 7.88698 8.44674 8.1051C8.31797 8.32322 8.25003 8.57187 8.25 8.82517V13.3528C8.25042 13.6051 8.31814 13.8527 8.44617 14.0701C8.57421 14.2875 8.75792 14.4668 8.97837 14.5895C9.19881 14.7122 9.448 14.7739 9.70023 14.7682C9.95246 14.7625 10.1986 14.6896 10.4132 14.557ZM13.2891 11.106L9.66667 13.3528V8.82517L13.2891 11.106ZM38 21.7083C38 24.4425 35.7758 26.6667 33.0417 26.6667C31.8506 26.6644 30.7001 26.2338 29.8002 25.4535C28.9003 24.6733 28.311 23.5954 28.14 22.4167H25.1933C25.0223 23.5954 24.4331 24.6733 23.5331 25.4535C22.6332 26.2338 21.4827 26.6644 20.2917 26.6667C19.1005 26.6647 17.9499 26.2342 17.0499 25.4539C16.1499 24.6736 15.5607 23.5955 15.39 22.4167H14.5995C13.2225 22.4167 11.9787 21.8514 11.0833 20.9405V28.0833C11.0833 30.4265 12.9902 32.3333 15.3333 32.3333H15.39C15.7357 29.9349 17.7983 28.0833 20.2917 28.0833C23.0258 28.0833 25.25 30.3075 25.25 33.0417C25.25 35.7758 23.0258 38 20.2917 38C19.1005 37.998 17.9499 37.5675 17.0499 36.7872C16.1499 36.0069 15.5607 34.9288 15.39 33.75H15.3333C12.2082 33.75 9.66667 31.2085 9.66667 28.0833V18.0236C8.06795 17.6951 6.63139 16.8254 5.59915 15.5612C4.56691 14.2969 4.00212 12.7155 4 11.0833C4 7.17758 7.17758 4 11.0833 4C14.9891 4 18.1667 7.17758 18.1667 11.0833C18.1642 12.9492 17.4263 14.7388 16.1131 16.0643C14.7998 17.3897 13.0171 18.1441 11.1513 18.1638C11.3088 18.9627 11.7387 19.6822 12.3675 20.1994C12.9964 20.7167 13.7852 20.9996 14.5995 21H15.39C15.7357 18.6016 17.7983 16.75 20.2917 16.75C21.4828 16.752 22.6335 17.1825 23.5334 17.9628C24.4334 18.7431 25.0226 19.8212 25.1933 21H28.14C28.311 19.8213 28.9003 18.7434 29.8002 17.9631C30.7001 17.1829 31.8506 16.7523 33.0417 16.75C35.7758 16.75 38 18.9742 38 21.7083ZM16.75 33.0417C16.75 34.9938 18.3395 36.5833 20.2917 36.5833C22.2438 36.5833 23.8333 34.9938 23.8333 33.0417C23.8333 31.0895 22.2438 29.5 20.2917 29.5C18.3395 29.5 16.75 31.0895 16.75 33.0417ZM11.0833 16.75C14.2085 16.75 16.75 14.2085 16.75 11.0833C16.75 7.95817 14.2085 5.41667 11.0833 5.41667C7.95817 5.41667 5.41667 7.95817 5.41667 11.0833C5.41667 14.2085 7.95817 16.75 11.0833 16.75ZM23.8333 21.7083C23.8333 19.7562 22.2438 18.1667 20.2917 18.1667C18.3395 18.1667 16.75 19.7562 16.75 21.7083C16.75 23.6605 18.3395 25.25 20.2917 25.25C22.2438 25.25 23.8333 23.6605 23.8333 21.7083ZM36.5833 21.7083C36.5833 19.7562 34.9938 18.1667 33.0417 18.1667C31.0895 18.1667 29.5 19.7562 29.5 21.7083C29.5 23.6605 31.0895 25.25 33.0417 25.25C34.9938 25.25 36.5833 23.6605 36.5833 21.7083ZM18.1667 33.0417C18.1667 33.2295 18.2413 33.4097 18.3741 33.5425C18.507 33.6754 18.6871 33.75 18.875 33.75C19.0629 33.75 19.243 33.6754 19.3759 33.5425C19.5087 33.4097 19.5833 33.2295 19.5833 33.0417C19.5833 32.8538 19.5087 32.6736 19.3759 32.5408C19.243 32.408 19.0629 32.3333 18.875 32.3333C18.6871 32.3333 18.507 32.408 18.3741 32.5408C18.2413 32.6736 18.1667 32.8538 18.1667 33.0417ZM21 33.0417C21 33.2295 21.0746 33.4097 21.2075 33.5425C21.3403 33.6754 21.5205 33.75 21.7083 33.75C21.8962 33.75 22.0764 33.6754 22.2092 33.5425C22.342 33.4097 22.4167 33.2295 22.4167 33.0417C22.4167 32.8538 22.342 32.6736 22.2092 32.5408C22.0764 32.408 21.8962 32.3333 21.7083 32.3333C21.5205 32.3333 21.3403 32.408 21.2075 32.5408C21.0746 32.6736 21 32.8538 21 33.0417ZM38 33.0417C38 35.7758 35.7758 38 33.0417 38C31.8502 37.9976 30.6993 37.5666 29.7994 36.7858C28.8994 36.005 28.3104 34.9264 28.14 33.7472C28.1301 33.7486 28.1216 33.7542 28.1102 33.7542L27.3934 33.7783H27.3693C27.1867 33.7736 27.0129 33.6985 26.8843 33.5687C26.7557 33.4388 26.6823 33.2643 26.6793 33.0816C26.6764 32.8989 26.7442 32.7221 26.8686 32.5882C26.9929 32.4543 27.1642 32.3736 27.3467 32.3631L28.0635 32.339C28.089 32.3362 28.1131 32.3475 28.1372 32.3489C28.3048 31.1669 28.893 30.0849 29.7939 29.3014C30.6947 28.5179 31.8478 28.0855 33.0417 28.0833C35.7758 28.0833 38 30.3075 38 33.0417ZM36.5833 33.0417C36.5833 31.0895 34.9938 29.5 33.0417 29.5C31.0895 29.5 29.5 31.0895 29.5 33.0417C29.5 34.9938 31.0895 36.5833 33.0417 36.5833C34.9938 36.5833 36.5833 34.9938 36.5833 33.0417Z" fill="#5B98F4" stroke="#5B98F4" stroke-width="0.00064"/>
</svg>
