<svg width="45" height="45" viewBox="0 0 45 45" fill="none" xmlns="http://www.w3.org/2000/svg">
<path d="M23 5C13.0595 5 5 13.0595 5 23C5 31.4345 10.808 38.492 18.638 40.445C18.554 40.202 18.5 39.92 18.5 39.5705V36.494C17.7695 36.494 16.5455 36.494 16.238 36.494C15.0065 36.494 13.9115 35.9645 13.3805 34.9805C12.791 33.887 12.689 32.2145 11.228 31.1915C10.7945 30.851 11.1245 30.4625 11.624 30.515C12.5465 30.776 13.3115 31.409 14.0315 32.348C14.7485 33.2885 15.086 33.5015 16.4255 33.5015C17.075 33.5015 18.047 33.464 18.962 33.32C19.454 32.0705 20.3045 30.92 21.344 30.377C15.35 29.7605 12.4895 26.7785 12.4895 22.73C12.4895 20.987 13.232 19.301 14.4935 17.8805C14.0795 16.4705 13.559 13.595 14.6525 12.5C17.3495 12.5 18.98 14.249 19.3715 14.7215C20.7155 14.261 22.1915 14 23.7425 14C25.2965 14 26.7785 14.261 28.1255 14.7245C28.5125 14.255 30.1445 12.5 32.8475 12.5C33.9455 13.5965 33.419 16.484 33.0005 17.891C34.2545 19.3085 34.9925 20.99 34.9925 22.73C34.9925 26.7755 32.1365 29.756 26.1515 30.3755C27.7985 31.235 29 33.65 29 35.4695V39.5705C29 39.7265 28.9655 39.839 28.9475 39.9725C35.9615 37.514 41 30.854 41 23C41 13.0595 32.9405 5 23 5Z" fill="#5B98F4"/>
</svg>
