<svg width="42" height="42" viewBox="0 0 42 42" fill="none" xmlns="http://www.w3.org/2000/svg">
<g clip-path="url(#clip0_511_134)">
<rect x="5" y="5" width="32" height="32" rx="16" fill="#5B98F4"/>
<path d="M14.2258 16.7097C11.7316 16.7097 9.70968 18.7316 9.70968 21.2258C9.70968 23.72 11.7316 25.742 14.2258 25.742C16.248 25.742 17.9597 24.4129 18.5352 22.5807H15.129C14.3808 22.5807 13.7742 21.9741 13.7742 21.2258C13.7742 20.4776 14.3808 19.871 15.129 19.871H20.6752C21.3094 16.5279 24.2466 14 27.7743 14C31.765 14 35 17.2351 35 21.2258C35 25.2165 31.765 28.4517 27.7743 28.4517C24.6699 28.4517 22.0228 26.4939 21 23.7459C19.9773 26.4939 17.3301 28.4517 14.2258 28.4517C10.2351 28.4517 7 25.2165 7 21.2258C7 17.2351 10.2351 14 14.2258 14C15.6563 14 16.9935 14.4171 18.1176 15.1367C18.7478 15.5402 18.9316 16.3781 18.5281 17.0083C18.1247 17.6385 17.2867 17.8222 16.6566 17.4188C15.9556 16.97 15.1232 16.7097 14.2258 16.7097ZM27.7743 16.7097C25.28 16.7097 23.2581 18.7316 23.2581 21.2258C23.2581 23.72 25.28 25.742 27.7743 25.742C30.2684 25.742 32.2903 23.72 32.2903 21.2258C32.2903 18.7316 30.2684 16.7097 27.7743 16.7097Z" fill="white"/>
</g>
<defs>
<clipPath id="clip0_511_134">
<rect width="42" height="42" fill="white"/>
</clipPath>
</defs>
</svg>
