<svg width="43" height="43" viewBox="0 0 43 43" fill="none" xmlns="http://www.w3.org/2000/svg">
<path fill-rule="evenodd" clip-rule="evenodd" d="M24.476 8.04916L31.6382 12.1844C31.8398 11.9708 32.0754 11.7821 32.3427 11.6269C33.8281 10.773 35.7227 11.28 36.5854 12.7654C37.4393 14.2509 36.9323 16.1454 35.4469 17.0082C35.1817 17.1607 34.9032 17.2698 34.6197 17.3376V25.6113C34.9001 25.6793 35.1756 25.7877 35.438 25.9385C36.9323 26.8013 37.4393 28.6959 36.5766 30.1813C35.7227 31.6668 33.8192 32.1738 32.3338 31.3199C32.038 31.1499 31.7811 30.9383 31.5659 30.6966L24.4474 34.8066C24.5492 35.1141 24.6042 35.443 24.6042 35.785C24.6042 37.4928 23.2167 38.8893 21.5 38.8893C19.7833 38.8893 18.3957 37.5017 18.3957 35.785C18.3957 35.4799 18.4396 35.1851 18.5213 34.9067L11.361 30.7726C11.1615 30.982 10.9292 31.1671 10.6662 31.3199C9.17187 32.1738 7.27729 31.6668 6.4234 30.1813C5.5695 28.6959 6.0765 26.8013 7.56192 25.9385C7.82456 25.7876 8.09998 25.6791 8.38024 25.6111V17.3376C8.09674 17.2698 7.81822 17.1607 7.55303 17.0082C6.06761 16.1543 5.56061 14.2509 6.4145 12.7654C7.2684 11.28 9.17187 10.773 10.6573 11.6269C10.9231 11.7813 11.1575 11.9687 11.3585 12.1809L18.5226 8.04456C18.44 7.76483 18.3957 7.46855 18.3957 7.16176C18.3957 5.44507 19.7833 4.0575 21.5 4.0575C23.2167 4.0575 24.6042 5.44507 24.6042 7.16176C24.6042 7.47023 24.5594 7.76808 24.476 8.04916ZM23.7297 9.32323L30.909 13.4683C30.6871 14.2477 30.7685 15.112 31.2041 15.8697C31.6411 16.6299 32.3531 17.1339 33.1432 17.3303V25.6143C33.1029 25.6242 33.0629 25.6349 33.023 25.6463L23.6464 9.40603C23.6747 9.37896 23.7025 9.35135 23.7297 9.32323ZM19.3555 9.40791L9.97905 25.6479C9.93851 25.6362 9.89774 25.6252 9.85676 25.6151V17.3303C10.6469 17.1339 11.3588 16.6299 11.7958 15.8697C12.2323 15.1105 12.3132 14.2443 12.0896 13.4637L19.2669 9.31978C19.2958 9.34974 19.3254 9.37913 19.3555 9.40791ZM22.3673 10.1436L31.7417 26.38C31.5319 26.58 31.347 26.8131 31.1952 27.0771C31.0444 27.3395 30.936 27.615 30.868 27.8954H12.1321C12.0641 27.6151 11.9557 27.3397 11.8047 27.0771C11.6524 26.8148 11.4678 26.583 11.2591 26.3838L20.6352 10.1444C20.9096 10.2236 21.1998 10.266 21.5 10.266C21.8011 10.266 22.0922 10.2233 22.3673 10.1436ZM23.7957 33.6937L30.9283 29.5755C30.9069 29.5083 30.8878 29.4404 30.871 29.3719H12.1282C12.1182 29.4122 12.1075 29.4522 12.0959 29.492L19.2636 33.6304C19.8279 33.0447 20.6208 32.6808 21.5 32.6808C22.4104 32.6808 23.2283 33.071 23.7957 33.6937Z" fill="#5B98F4"/>
</svg>
