<svg width="45" height="45" viewBox="0 0 45 45" fill="none" xmlns="http://www.w3.org/2000/svg">
<path d="M14.9971 4.5C9.20857 4.5 4.5 9.21293 4.5 15.0029V30.0029C4.5 35.7914 9.21293 40.5 15.0029 40.5H30.0029C35.7914 40.5 40.5 35.7871 40.5 29.9971V14.9971C40.5 9.20857 35.7871 4.5 29.9971 4.5H14.9971ZM33 10.5C33.828 10.5 34.5 11.172 34.5 12C34.5 12.828 33.828 13.5 33 13.5C32.172 13.5 31.5 12.828 31.5 12C31.5 11.172 32.172 10.5 33 10.5ZM22.5 13.5C27.4635 13.5 31.5 17.5365 31.5 22.5C31.5 27.4635 27.4635 31.5 22.5 31.5C17.5365 31.5 13.5 27.4635 13.5 22.5C13.5 17.5365 17.5365 13.5 22.5 13.5ZM22.5 16.5C20.9087 16.5 19.3826 17.1321 18.2574 18.2574C17.1321 19.3826 16.5 20.9087 16.5 22.5C16.5 24.0913 17.1321 25.6174 18.2574 26.7426C19.3826 27.8679 20.9087 28.5 22.5 28.5C24.0913 28.5 25.6174 27.8679 26.7426 26.7426C27.8679 25.6174 28.5 24.0913 28.5 22.5C28.5 20.9087 27.8679 19.3826 26.7426 18.2574C25.6174 17.1321 24.0913 16.5 22.5 16.5Z" fill="white"/>
</svg>
