<svg width="42" height="42" viewBox="0 0 42 42" fill="none" xmlns="http://www.w3.org/2000/svg">
<path d="M33.6 5.60001H8.39998C6.85298 5.60001 5.59998 6.85301 5.59998 8.40001V33.6C5.59998 35.147 6.85298 36.4 8.39998 36.4H33.6C35.147 36.4 36.4 35.147 36.4 33.6V8.40001C36.4 6.85301 35.147 5.60001 33.6 5.60001ZM21 28.532C21 31.0198 19.474 32.4142 16.94 32.4142C14.4368 32.4142 12.8422 30.9512 12.8422 28.5852H15.554C15.561 29.463 16.0846 30.0174 16.8938 30.0174C17.7254 30.0174 18.172 29.4938 18.172 28.5082V20.9972H21V28.532ZM28.6734 32.4142C25.8608 32.4142 24.0912 31.0898 24.0436 28.9478H26.74C26.8086 29.757 27.6164 30.2722 28.7882 30.2722C29.8438 30.2722 30.569 29.764 30.569 29.0318C30.569 28.4158 30.0832 28.084 28.812 27.8306L27.349 27.538C25.3148 27.153 24.2676 26.0442 24.2676 24.2956C24.2676 22.1228 26.0092 20.6976 28.6888 20.6976C31.2928 20.6976 33.0946 22.1074 33.1408 24.164H30.5298C30.4682 23.3786 29.7206 22.8312 28.7252 22.8312C27.7326 22.8312 27.0788 23.3016 27.0788 24.0408C27.0788 24.6498 27.5716 25.004 28.742 25.235L30.1728 25.5122C32.3694 25.9364 33.355 26.929 33.355 28.693C33.3564 31.0128 31.5854 32.4142 28.6734 32.4142Z" fill="#5B98F4"/>
</svg>
