<svg width="42" height="42" viewBox="0 0 42 42" fill="none" xmlns="http://www.w3.org/2000/svg">
<path d="M12.9999 36.0151C13.4891 36.6505 14.2319 37.0002 14.9977 37.0002H27.0001C27.7658 37.0002 28.5087 36.6231 29.0002 36.0082L36.4471 26.4584C36.9363 25.8229 37.1054 25.0115 36.9363 24.2229L34.2734 12.321C34.1919 11.9395 34.0249 11.5814 33.785 11.2738C33.545 10.9661 33.2384 10.7169 32.8882 10.545L22.1132 5.26491C21.7699 5.08979 21.3899 4.9989 21.0046 4.99976C20.6206 4.99976 20.2389 5.08662 19.896 5.26262L9.11871 10.5656C8.76902 10.7379 8.46293 10.9873 8.22342 11.2949C7.98391 11.6025 7.81721 11.9603 7.73583 12.3416L5.07293 24.2458C4.88093 25.0344 5.07293 25.8458 5.56208 26.4812L12.9999 36.0128V36.0151Z" fill="#5B98F4"/>
<path fill-rule="evenodd" clip-rule="evenodd" d="M31.8367 23.5783C32.0607 23.5829 32.2847 23.6012 32.5064 23.6332L32.639 23.6629L32.7099 23.6812C32.8063 23.6941 32.899 23.7269 32.9822 23.7774C33.0653 23.828 33.1371 23.8952 33.1929 23.9749C33.2487 24.0546 33.2875 24.145 33.3066 24.2404C33.3258 24.3358 33.3249 24.4341 33.3042 24.5292C33.2827 24.6247 33.2414 24.7147 33.183 24.7933C33.1245 24.8719 33.0503 24.9373 32.9649 24.9853C32.8796 25.0334 32.7851 25.063 32.6877 25.0722C32.5902 25.0815 32.4918 25.0701 32.399 25.0389H32.3899L32.383 25.0366L32.3761 25.0321C32.3533 25.0273 32.3305 25.0227 32.3076 25.0184L32.1933 24.9955C31.98 24.9268 31.7709 24.8459 31.567 24.7532C31.1735 24.5944 30.7655 24.4742 30.3487 24.3943C30.2043 24.3902 30.064 24.4427 29.9578 24.5406C29.8583 24.5217 29.7584 24.5042 29.6584 24.4881C28.9807 26.6113 27.5455 28.411 25.6263 29.5441C25.6606 29.6401 25.6995 29.7339 25.7429 29.8253C25.672 29.9502 25.6531 30.098 25.6903 30.2367C25.8595 30.6253 26.0675 30.9956 26.3098 31.343C26.4469 31.5213 26.5703 31.7087 26.6846 31.9007L26.7486 32.031L26.7761 32.0882C26.8524 32.2146 26.8867 32.362 26.8741 32.5092C26.8615 32.6563 26.8026 32.7957 26.706 32.9074C26.6093 33.019 26.4797 33.0972 26.3359 33.1307C26.192 33.1642 26.0413 33.1513 25.9052 33.0939C25.8146 33.0565 25.7329 33.0005 25.6652 32.9297C25.5975 32.8588 25.5453 32.7746 25.512 32.6825L25.4892 32.6368C25.4669 32.593 25.4456 32.5488 25.4252 32.5042C25.3451 32.2949 25.2772 32.0812 25.2218 31.8642C25.1003 31.4594 24.9395 31.0674 24.7417 30.6939C24.6558 30.5777 24.5278 30.4998 24.3852 30.4767L24.3166 30.3556L24.2366 30.2093C22.1564 30.9947 19.8602 30.989 17.7839 30.1933L17.6239 30.479C17.511 30.4965 17.4059 30.5475 17.3222 30.6253C17.0837 31.0153 16.9014 31.437 16.7805 31.8779C16.7259 32.095 16.6588 32.3087 16.5793 32.5179C16.5612 32.5564 16.5421 32.5945 16.5222 32.6322L16.4925 32.6939C16.4595 32.7863 16.4075 32.8731 16.3398 32.9441C16.2721 33.0151 16.1902 33.0711 16.0995 33.1084C16.0087 33.1457 15.9111 33.1635 15.813 33.1606C15.715 33.1577 15.6186 33.1342 15.5302 33.0916C15.3976 33.0282 15.2882 32.9249 15.2173 32.7962C15.1464 32.6675 15.1175 32.5198 15.1347 32.3739C15.1465 32.2769 15.1784 32.1835 15.2285 32.0996L15.2605 32.031L15.3199 31.9122C15.4342 31.7179 15.5576 31.5327 15.6948 31.3545C15.9416 30.9979 16.1519 30.6184 16.3279 30.2207C16.3461 30.0855 16.3239 29.9479 16.2639 29.8253L16.3919 29.5213C14.4798 28.3969 13.0455 26.6113 12.3598 24.5018L12.0536 24.5543C11.9353 24.4705 11.796 24.4214 11.6513 24.4126C11.2346 24.4918 10.8266 24.6113 10.433 24.7692C10.2272 24.8606 10.0192 24.9406 9.80666 25.0092C9.76878 25.0186 9.73067 25.0269 9.69237 25.0344L9.6238 25.0504H9.61694L9.61237 25.0549H9.60094C9.48505 25.0921 9.36149 25.0986 9.24233 25.0738C9.12318 25.049 9.01249 24.9937 8.92108 24.9133C8.82966 24.833 8.76065 24.7303 8.72076 24.6153C8.68087 24.5003 8.67148 24.3769 8.6935 24.2572C8.72156 24.113 8.79428 23.9814 8.90136 23.8809C9.00844 23.7803 9.14444 23.7161 9.29008 23.6972L9.30151 23.6949H9.30608L9.3198 23.6903C9.37466 23.6766 9.44323 23.6583 9.49351 23.6492C9.71523 23.6195 9.93924 23.6012 10.1632 23.5966C10.5884 23.5669 11.009 23.4983 11.4181 23.3909C11.5394 23.3132 11.6417 23.2093 11.7175 23.0869L12.0101 23.0023C11.6929 20.801 12.2018 18.5602 13.4387 16.7119L13.2147 16.5131C13.2062 16.3683 13.157 16.2289 13.073 16.1108C12.7509 15.8345 12.4025 15.5903 12.033 15.3816C11.8331 15.2801 11.6393 15.1672 11.4524 15.0433L11.3427 14.9565L11.3084 14.9268L11.2993 14.9199C11.14 14.8064 11.0322 14.6344 10.9996 14.4416C10.9671 14.2487 11.0124 14.0508 11.1255 13.8913C11.1928 13.8097 11.2783 13.745 11.3752 13.7025C11.4721 13.66 11.5776 13.6409 11.6833 13.6468C11.8609 13.6543 12.0315 13.7183 12.1701 13.8296L12.2204 13.8685C12.257 13.8982 12.2981 13.9279 12.3256 13.953C12.4901 14.1062 12.6433 14.2708 12.7873 14.4399C13.073 14.7531 13.3884 15.0388 13.729 15.2902C13.857 15.3588 14.0056 15.3725 14.145 15.3314L14.3964 15.5096C15.9269 13.8864 18.0057 12.8893 20.2297 12.7119L20.248 12.417C20.3563 12.3207 20.4349 12.1954 20.4743 12.0559C20.4895 11.633 20.4635 11.2097 20.3965 10.7919C20.3519 10.5729 20.3199 10.3516 20.3005 10.129V9.94156V9.93013C20.2906 9.8325 20.3013 9.73387 20.332 9.64066C20.3626 9.54744 20.4126 9.46172 20.4786 9.38907C20.5445 9.31642 20.625 9.25847 20.7149 9.21897C20.8047 9.17947 20.9018 9.15932 21 9.15983C21.0979 9.16003 21.1947 9.18066 21.2842 9.22039C21.3737 9.26012 21.4539 9.31808 21.5197 9.39058C21.5856 9.46307 21.6355 9.5485 21.6665 9.6414C21.6974 9.73431 21.7086 9.83264 21.6994 9.93013V10.129C21.681 10.3516 21.6497 10.5729 21.6057 10.7919C21.538 11.2096 21.5112 11.6329 21.5257 12.0559C21.5532 12.1978 21.6353 12.3234 21.7543 12.4056V12.4216L21.7703 12.7165C23.9806 12.9176 26.0446 13.9096 27.5761 15.5119L27.8412 15.3245C27.9844 15.3493 28.1317 15.3335 28.2664 15.2788C28.6069 15.0273 28.9224 14.7393 29.2081 14.4262C29.3521 14.2548 29.5052 14.0925 29.6698 13.9393L29.7864 13.8479L29.8253 13.8159C29.8952 13.7466 29.9789 13.6927 30.071 13.6579C30.1632 13.6231 30.2616 13.608 30.3599 13.6137C30.4582 13.6194 30.5542 13.6457 30.6417 13.691C30.7291 13.7362 30.8061 13.7994 30.8676 13.8763C30.929 13.9533 30.9736 14.0423 30.9984 14.1376C31.0232 14.2329 31.0277 14.3323 31.0115 14.4295C30.9953 14.5266 30.9589 14.6193 30.9045 14.7014C30.8502 14.7835 30.7792 14.8533 30.6961 14.9062L30.6413 14.9519C30.607 14.9793 30.5727 15.0091 30.543 15.0296C30.3562 15.1535 30.1623 15.2665 29.9624 15.3679C29.5929 15.5775 29.2446 15.8225 28.9224 16.0994C28.8286 16.2081 28.7811 16.3492 28.7898 16.4925L28.6755 16.5931L28.5429 16.7142C29.7818 18.5565 30.303 20.7897 29.999 22.9886L30.2801 23.0709C30.351 23.1966 30.4561 23.3018 30.5841 23.3726C30.9933 23.4823 31.4138 23.5509 31.8367 23.5783ZM19.3794 14.6913C19.624 14.6365 19.8731 14.5931 20.1245 14.5633L19.9188 18.2205L19.9005 18.2297C19.8972 18.3128 19.8769 18.3944 19.841 18.4695C19.805 18.5446 19.7542 18.6115 19.6915 18.6663C19.6288 18.721 19.5557 18.7624 19.4764 18.788C19.3972 18.8135 19.3137 18.8227 19.2308 18.8148C19.1195 18.8054 19.0128 18.7659 18.9222 18.7005L18.9177 18.7028L15.9096 16.5771C16.8673 15.6399 18.0696 14.9862 19.3794 14.6913ZM23.0777 18.6914L26.0675 16.5794C24.9291 15.467 23.4573 14.7588 21.8777 14.5633L22.0834 18.216H22.088C22.0913 18.2993 22.1117 18.3811 22.1477 18.4564C22.1838 18.5316 22.2349 18.5987 22.2978 18.6535C22.3607 18.7083 22.4342 18.7496 22.5137 18.775C22.5931 18.8004 22.677 18.8093 22.76 18.8011C22.8713 18.7917 22.978 18.7522 23.0686 18.6868L23.0777 18.6914ZM28.2161 22.4766L24.6777 21.4572L24.6732 21.4434C24.593 21.4213 24.5181 21.3831 24.453 21.3312C24.388 21.2793 24.3341 21.2148 24.2946 21.1416C24.2551 21.0684 24.2308 20.9879 24.2232 20.905C24.2156 20.8222 24.2248 20.7386 24.2503 20.6594C24.2853 20.5531 24.3485 20.4583 24.4332 20.3851L24.4286 20.3829L27.1601 17.944C27.9967 19.3017 28.3647 20.8926 28.2115 22.4766H28.2161ZM23.5052 24.4286L24.9177 27.8344C26.2685 26.975 27.294 25.6896 27.8321 24.1818L24.1909 23.5669L24.1863 23.5738C24.0575 23.5489 23.9241 23.5674 23.8069 23.6263C23.665 23.6957 23.555 23.8169 23.4998 23.9648C23.4445 24.1128 23.448 24.2763 23.5097 24.4218L23.5052 24.4286ZM22.6251 28.783C21.3154 29.0801 19.9508 29.0116 18.6777 28.5818L20.4537 25.3818C20.5064 25.2838 20.5869 25.2019 20.6823 25.1447C20.7778 25.0876 20.8869 25.0573 20.9982 25.057C21.1094 25.0568 21.2187 25.0867 21.3143 25.1434C21.41 25.2002 21.4886 25.2818 21.5417 25.3795H21.5554L23.336 28.5841C23.1025 28.662 22.8652 28.7284 22.6251 28.783ZM17.0982 27.8184L18.4948 24.4492L18.4857 24.4355C18.5302 24.3331 18.5459 24.2205 18.5311 24.1098C18.5163 23.9992 18.4716 23.8946 18.4017 23.8076C18.3318 23.7205 18.2394 23.6542 18.1346 23.6158C18.0297 23.5774 17.9164 23.5684 17.8068 23.5898L17.7999 23.5829L14.1907 24.1932C14.7341 25.6889 15.7562 26.9633 17.0982 27.8184ZM14.8193 17.944L17.5645 20.392L17.5622 20.408C17.6459 20.4811 17.7082 20.5756 17.7425 20.6813C17.7768 20.7871 17.7817 20.9001 17.7569 21.0085C17.732 21.1168 17.6783 21.2164 17.6013 21.2966C17.5244 21.3768 17.4271 21.4347 17.3199 21.464L17.3176 21.4754L13.7976 22.488C13.6225 20.9018 13.9821 19.3026 14.8193 17.944ZM21.5623 20.5817H20.4377L19.736 21.4503L19.9874 22.5383L21 23.0252L22.0103 22.5406L22.2617 21.4526L21.5623 20.5817Z" fill="white"/>
</svg>
