<svg width="45" height="45" viewBox="0 0 45 45" fill="none" xmlns="http://www.w3.org/2000/svg">
<path d="M22.5 4.5C12.5595 4.5 4.5 12.5595 4.5 22.5C4.5 32.4405 12.5595 40.5 22.5 40.5C32.4405 40.5 40.5 32.4405 40.5 22.5C40.5 12.5595 32.4405 4.5 22.5 4.5ZM15.744 12.6045C17.007 12.6045 17.8485 13.446 17.8485 14.568C17.8485 15.69 17.007 16.5315 15.6045 16.5315C14.3415 16.533 13.5 15.69 13.5 14.568C13.5 13.446 14.3415 12.6045 15.744 12.6045ZM18 30H13.5V18H18V30ZM33 30H28.764V23.442C28.764 21.6285 27.6345 21.21 27.2115 21.21C26.7885 21.21 25.3755 21.489 25.3755 23.442C25.3755 23.721 25.3755 30 25.3755 30H21V18H25.377V19.674C25.941 18.6975 27.0705 18 29.1885 18C31.3065 18 33 19.674 33 23.442V30Z" fill="#5B98F4"/>
</svg>
