<svg width="45" height="45" viewBox="0 0 45 45" fill="none" xmlns="http://www.w3.org/2000/svg">
<path d="M22.1581 7.97888C19.8525 8.00367 17.7948 8.14003 15.985 8.38794C13.9769 8.66065 12.3902 9.06971 11.225 9.61513L10.7044 9.91263C10.3077 10.1605 9.91104 10.4704 9.51437 10.8423C8.96896 11.3629 8.49791 11.9455 8.10125 12.5901C7.58062 13.4083 7.18396 14.3131 6.91125 15.3048C6.56417 16.47 6.39062 17.7468 6.39062 19.1351V20.5111C6.39062 22.42 6.40302 23.8951 6.42781 24.9364C6.50219 27.7378 6.72531 30.0682 7.09719 31.9276C7.56823 34.2828 8.33677 36.1918 9.40281 37.6545C10.6424 39.3155 12.3034 40.4187 14.3859 40.9642C17.0882 41.6831 19.6913 41.9806 22.1953 41.8567C23.3357 41.7823 24.4265 41.6335 25.4678 41.4104C26.2115 41.2369 26.8933 41.0261 27.5131 40.7782L28.2197 40.4807L28.0709 37.6917L27.2528 37.9148C26.5586 38.0635 25.8521 38.1875 25.1331 38.2867C24.1166 38.4354 23.1498 38.485 22.2325 38.4354C20.9185 38.4106 19.9269 38.3238 19.2575 38.1751C18.1914 37.9768 17.3609 37.6049 16.7659 37.0595C16.047 36.4397 15.6131 35.5472 15.4644 34.382C15.4148 34.0349 15.39 33.6754 15.39 33.3035L16.3197 33.5267C17.0882 33.6754 17.8939 33.7994 18.7369 33.8985C19.9269 34.0721 21.0797 34.1836 22.1953 34.2332C23.2365 34.2828 24.377 34.258 25.6165 34.1589C26.4099 34.1093 27.5007 33.9977 28.889 33.8242C30.2774 33.6506 31.6037 33.2787 32.8681 32.7085C34.0829 32.1383 35.0931 31.4628 35.8989 30.6818C36.7046 29.9009 37.1818 29.1138 37.3306 28.3204C37.5537 27.2048 37.7149 25.8537 37.814 24.267C37.9132 23.1266 37.9752 21.9242 38 20.6598V19.1351C38 17.7468 37.8264 16.47 37.4793 15.3048C37.2066 14.3131 36.81 13.4083 36.2893 12.5901C35.8927 11.9455 35.4216 11.3629 34.8762 10.8423C34.5043 10.4704 34.1077 10.1605 33.6862 9.91263C33.3887 9.7143 33.2152 9.61513 33.1656 9.61513C32.0252 9.06971 30.4509 8.66065 28.4428 8.38794C26.6082 8.14003 24.5505 8.00367 22.2697 7.97888H22.1581ZM17.2494 13.7429C19.0592 13.7429 20.4103 14.4371 21.3028 15.8254L22.1953 17.2757L23.0878 15.8254C23.9803 14.4371 25.3314 13.7429 27.1412 13.7429C28.7031 13.7429 29.9551 14.276 30.8972 15.342C31.8392 16.408 32.3103 17.8583 32.3103 19.6929V28.5807H28.7775V19.9532C28.7775 18.1187 28.0213 17.2014 26.509 17.2014C24.7984 17.2014 23.9431 18.2922 23.9431 20.4739V25.1967H20.4475V20.4739C20.4475 18.2922 19.5922 17.2014 17.8815 17.2014C16.3693 17.2014 15.6131 18.1187 15.6131 19.9532V28.5807H12.0803V19.6929C12.0803 17.8583 12.5513 16.408 13.4934 15.342C14.4355 14.276 15.6875 13.7429 17.2494 13.7429Z" fill="white"/>
</svg>
