<svg width="42" height="42" viewBox="0 0 42 42" fill="none" xmlns="http://www.w3.org/2000/svg">
<path d="M21 38C30.3888 38 38 30.3888 38 21C38 11.6112 30.3888 4 21 4C11.6112 4 4 11.6112 4 21C4 30.3888 11.6112 38 21 38Z" fill="#5B98F4" stroke="#5B98F4" stroke-width="0.00064"/>
<path d="M25.5442 18.9228C24.4704 14.1837 21.9327 12.6255 21.6595 12.0302C21.3606 11.6102 21.0578 10.8631 21.0578 10.8631C21.0528 10.8505 21.0449 10.8282 21.0356 10.8066C21.0047 11.2267 20.9888 11.3887 20.5916 11.8124C19.9767 12.2931 16.8218 14.9404 16.5651 20.3246C16.3257 25.3463 20.1925 28.3386 20.7155 28.7201L20.7749 28.7622V28.7586C20.7782 28.7838 20.9409 29.9539 21.0552 31.1937H21.4649C21.561 30.3173 21.7051 29.4469 21.8965 28.5862L21.9297 28.5647C22.1637 28.3969 22.3867 28.2145 22.5974 28.0185L22.6214 27.9969C23.733 26.9699 25.7315 24.5946 25.7119 20.8074C25.7078 20.1757 25.6517 19.5454 25.5442 18.9228ZM21.0117 25.8848C21.0117 25.8848 21.0117 18.8418 21.2441 18.8431C21.4254 18.8431 21.6601 27.9278 21.6601 27.9278C21.3374 27.889 21.0117 26.4327 21.0117 25.8848Z" fill="white" stroke="#5B98F4" stroke-width="0.00064"/>
</svg>
