<svg width="42" height="42" viewBox="0 0 42 42" fill="none" xmlns="http://www.w3.org/2000/svg">
<path d="M35.6511 34.6765L35.0423 34.0964C34.7415 33.6997 34.4215 33.3486 34.0727 33.0286L34.0667 33.0238C33.7087 32.6986 33.3368 32.3894 32.9509 32.0961C32.6417 31.8836 32.2166 31.6275 31.6757 31.3279C31.231 31.1277 30.8835 30.7766 30.6953 30.3403L30.6905 30.3283L30.633 30.2996C30.8871 30.2744 31.1196 30.2277 31.3425 30.1617L31.3149 30.1689L31.9981 29.9808C32.2809 29.8921 32.6081 29.8346 32.9473 29.8214H32.9545C33.3116 29.807 33.6484 29.7495 33.9696 29.6548L33.9397 29.662C34.0947 29.6236 34.2541 29.5801 34.4179 29.5313C34.5817 29.4826 34.7219 29.439 34.8385 29.4007V29.1981C34.7227 29.0248 34.5825 28.8266 34.4179 28.6037C34.2609 28.3904 34.0847 28.2046 33.8869 28.0428L33.8809 28.038C33.3784 27.5937 32.8578 27.1639 32.3193 26.7484C31.8447 26.3781 31.3065 26.0005 30.748 25.6506L30.6665 25.6026C30.3717 25.4085 30.0337 25.2287 29.6778 25.0813L29.637 25.0669C29.2791 24.9215 28.9263 24.7621 28.5787 24.5887C28.4625 24.5312 28.327 24.4808 28.1868 24.4461L28.1736 24.4437C28.0334 24.4149 27.9136 24.343 27.8261 24.2411L27.8249 24.2399C27.6595 24.0218 27.5145 23.7737 27.3994 23.51L27.3898 23.4861C27.274 23.2152 27.1485 22.9551 27.0135 22.7058C26.7234 22.1449 26.443 21.5748 26.1721 20.9956C25.9013 20.4163 25.6412 19.8362 25.3919 19.2553C25.2185 18.8686 25.0591 18.4823 24.9137 18.0964C24.7531 17.6721 24.5721 17.3089 24.3612 16.9674L24.3768 16.9949C23.859 16.1128 23.3425 15.3602 22.7816 14.6447L22.8151 14.6902C22.2602 13.9903 21.6849 13.3647 21.0665 12.7846L21.0569 12.7762C20.4469 12.2033 19.7901 11.6568 19.1009 11.151L19.0422 11.1091C18.3263 10.5889 17.5433 10.0768 16.6931 9.57258C16.3516 9.37123 15.9549 9.20703 15.5366 9.10156L15.5054 9.09437L14.1715 8.76119L13.4176 8.70366C13.1667 8.68448 12.9154 8.6749 12.6637 8.6749C12.4864 8.58141 12.3342 8.46995 12.1999 8.34051C12.0681 8.21467 11.9255 8.09602 11.7769 7.98695L11.7649 7.97856C11.0398 7.55549 10.1972 7.16837 9.31632 6.86395L9.21444 6.83279C8.98313 6.69736 8.70508 6.61826 8.40905 6.61826C8.19811 6.61826 7.99556 6.659 7.81099 6.73211L7.82178 6.72852C7.36634 6.90949 7.01878 7.27744 6.86896 7.73527L6.86537 7.74725C6.77788 7.95339 6.72754 8.1919 6.72754 8.44358C6.72754 8.88463 6.88335 9.28853 7.14342 9.60374L7.14102 9.60014C7.57568 10.1794 7.90887 10.6349 8.14058 10.9664C8.31396 11.199 8.49294 11.4407 8.67751 11.6915C8.8465 11.9169 8.99631 12.1745 9.11736 12.4466L9.12695 12.4718C9.19407 12.6144 9.2528 12.7846 9.29594 12.9596L9.29954 12.9787C9.33789 13.1433 9.38623 13.3223 9.44456 13.5157C9.61794 13.9599 9.78214 14.4153 9.93714 14.882C10.1061 15.3913 10.2931 15.8228 10.51 16.2339L10.4873 16.1859C10.6031 16.3985 10.7194 16.6062 10.836 16.8092C10.9527 17.0121 11.0781 17.2103 11.2124 17.4036C11.2903 17.5211 11.3885 17.6182 11.5012 17.6937L11.5048 17.6961C11.6234 17.7824 11.7013 17.9178 11.7073 18.0712C11.5707 18.2725 11.4784 18.5146 11.4473 18.7747L11.4461 18.7819C11.4041 19.0851 11.3442 19.3548 11.2627 19.6149L11.2723 19.5789C11.005 20.3771 10.8516 21.2976 10.8516 22.2528C10.8516 22.562 10.8672 22.8664 10.8995 23.1673L10.8959 23.1301C10.9679 24.2783 11.3142 25.333 11.8691 26.2462L11.8524 26.2163C12.0885 26.5698 12.3414 26.8778 12.6206 27.1595C12.822 27.3848 13.1144 27.5262 13.4404 27.5262C13.6226 27.5262 13.7951 27.4819 13.9462 27.4028L13.9402 27.4052C14.3596 27.2542 14.6581 26.8706 14.6796 26.414V26.4116C14.7372 25.8435 14.8235 25.3354 14.9421 24.8392L14.9265 24.9195C14.9553 24.844 14.9721 24.7577 14.9721 24.6666C14.9721 24.6486 14.9709 24.6306 14.9697 24.6127V24.6151C14.9601 24.528 15.0132 24.4457 15.1291 24.3682V24.4257C15.2449 24.6965 15.3656 24.967 15.491 25.2371C15.6165 25.5071 15.7467 25.7776 15.8817 26.0485C16.2353 26.5866 16.6104 27.0564 17.0227 27.4891L17.0191 27.4855C17.4326 27.9313 17.8833 28.3316 18.3698 28.6852L18.3962 28.7032C18.6503 28.8973 18.8732 29.1071 19.0746 29.336L19.0794 29.3408C19.2687 29.5637 19.4952 29.7471 19.7505 29.8849L19.7625 29.8909V29.8621H19.82C19.7733 29.7578 19.6978 29.674 19.6043 29.6164L19.6019 29.6152C19.5072 29.5625 19.4257 29.5098 19.349 29.4522L19.355 29.4558C19.1816 29.2824 19.0027 29.0891 18.8181 28.8757C18.6335 28.6624 18.4645 28.4595 18.3111 28.2669C17.9052 27.706 17.5181 27.1199 17.1498 26.5087C16.7814 25.8975 16.4335 25.2762 16.1059 24.645C15.9509 24.3358 15.801 24.017 15.6564 23.6886C15.5118 23.3602 15.3716 23.0414 15.2357 22.7322C15.177 22.6135 15.1363 22.4769 15.1207 22.3319V22.3259C15.1135 22.1881 15.0344 22.0694 14.9193 22.0083L14.9169 22.0071C14.7719 22.254 14.6113 22.4673 14.428 22.6603L14.4292 22.6591C14.2386 22.8592 14.0828 23.0953 13.9713 23.3542L13.9653 23.3698C13.7963 23.7797 13.6729 24.2555 13.619 24.7529L13.6166 24.7756C13.559 25.2878 13.5011 25.8144 13.4428 26.3553L13.3853 26.384L13.3565 26.4128C13.0449 26.3493 12.7884 26.1503 12.6494 25.8819L12.647 25.8759C12.5016 25.5954 12.3713 25.3198 12.2563 25.0489C11.959 24.2855 11.7745 23.4022 11.7493 22.4793V22.4685C11.7385 22.3223 11.7337 22.1509 11.7337 21.9795C11.7337 21.1813 11.8596 20.4119 12.0921 19.6904L12.0777 19.7431C12.1352 19.5306 12.2607 19.1726 12.454 18.6693C12.6474 18.1659 12.6861 17.8179 12.5703 17.6254C12.5103 17.4276 12.3989 17.261 12.2527 17.134L12.2515 17.1328C12.1052 17.0057 11.9722 16.8727 11.85 16.7313L11.8464 16.7265C11.7113 16.5315 11.5811 16.3238 11.4557 16.1032C11.3302 15.8827 11.2191 15.6654 11.1225 15.4513C10.9247 14.9934 10.7222 14.4193 10.5544 13.8297L10.528 13.723C10.3374 13.0459 10.1253 12.473 9.87362 11.9217L9.90478 11.9984C9.77175 11.6963 9.61714 11.4351 9.43737 11.1966L9.44456 11.2061C9.2496 10.9457 9.07542 10.6992 8.92201 10.4667C8.72705 10.2158 8.53369 9.97408 8.34193 9.74157C8.14657 9.50546 7.97279 9.23939 7.83136 8.95415L7.82058 8.93018C7.76305 8.81392 7.71271 8.67849 7.67796 8.53827L7.67556 8.52508C7.66238 8.48313 7.65518 8.434 7.65518 8.38486C7.65518 8.28658 7.68395 8.19429 7.73429 8.11759L7.73309 8.11999C7.74627 8.05287 7.77743 7.99414 7.82058 7.9462C7.86732 7.90425 7.92725 7.87309 7.99196 7.85991H7.99436C8.09623 7.79399 8.21968 7.75444 8.35391 7.75444C8.45459 7.75444 8.55167 7.77721 8.63676 7.81796L8.63317 7.81676C8.89564 7.89107 9.10778 7.96538 9.31512 8.05047L9.27197 8.03489C9.63871 8.1899 9.97709 8.33971 10.2871 8.48433C10.6443 8.65452 10.9487 8.8343 11.2363 9.03445L11.2148 9.02007C11.3698 9.11675 11.5244 9.22301 11.6786 9.33887C11.8328 9.45472 11.997 9.57098 12.1712 9.68763H12.5775C12.8867 9.68763 13.2151 9.70242 13.5626 9.73198C13.9138 9.75954 14.2386 9.82546 14.5478 9.92853L14.519 9.92015C15.0955 10.0915 15.5905 10.2941 16.0603 10.5374L16.0112 10.5146C16.485 10.7559 16.9344 11.012 17.3595 11.2828C18.0654 11.7227 18.6755 12.1733 19.2495 12.6659L19.2292 12.6491C19.8284 13.1621 20.3726 13.6883 20.8831 14.2444L20.8951 14.2587C21.3937 14.8029 21.8695 15.3937 22.3045 16.0134L22.3417 16.0697C22.742 16.6354 23.1459 17.2898 23.509 17.9681L23.5594 18.07C23.6565 18.2546 23.7547 18.4811 23.8398 18.7124L23.853 18.7519C23.9305 18.9741 24.0172 19.2018 24.1131 19.4351C24.3256 19.9185 24.5533 20.4063 24.7962 20.8985C25.0391 21.3907 25.2669 21.8693 25.4794 22.3343L26.117 23.7258C26.3411 24.2124 26.5916 24.6318 26.8828 25.0189L26.8697 25.001C27.113 25.261 27.4378 25.4432 27.8021 25.5067L27.8117 25.5079C28.2527 25.6182 28.6243 25.7428 28.9838 25.8903L28.9275 25.8699C29.0989 25.9478 29.3194 26.0305 29.5459 26.1036L29.5939 26.1168C29.848 26.1947 30.0685 26.2978 30.271 26.4272L30.2602 26.4212C30.6522 26.6405 30.9841 26.8563 31.3005 27.0912L31.2754 27.0732C31.6038 27.3145 31.9322 27.5422 32.2606 27.7563C32.4156 27.8722 32.6756 28.0412 33.0408 28.2633C33.4059 28.4854 33.5993 28.6932 33.6209 28.8865C33.4842 28.8817 33.3224 28.8781 33.1606 28.8781C32.571 28.8781 31.9909 28.9165 31.4228 28.9908L31.4899 28.9836C30.8475 29.0699 30.265 29.2269 29.7173 29.451L29.7653 29.4343C29.6298 29.493 29.468 29.5469 29.3002 29.5889L29.2775 29.5937C29.1073 29.6188 28.9754 29.7555 28.9587 29.9256C29.0318 30.0167 29.0905 30.1234 29.13 30.2384L29.1324 30.2456C29.1732 30.3679 29.2223 30.4734 29.2823 30.5716L29.2787 30.5644C29.4213 30.8173 29.5747 31.0355 29.7473 31.2368L29.7425 31.2308C29.9115 31.4394 30.102 31.6203 30.313 31.7749L30.3214 31.7809C30.5163 31.9359 30.7193 32.0953 30.9302 32.2591C31.1232 32.4101 31.3413 32.5588 31.5678 32.693L31.5966 32.7086C31.937 32.9171 32.3325 33.1161 32.7447 33.2827L32.7999 33.3018C33.2481 33.4816 33.6328 33.6902 33.99 33.9382L33.9708 33.9251C34.2033 34.0601 34.435 34.2099 34.666 34.3745C34.8969 34.5391 35.119 34.6985 35.3323 34.8527C35.4198 34.939 35.4965 35.0349 35.5612 35.1391L35.5648 35.1451C35.6739 35.2698 35.8249 35.3549 35.9963 35.3765H35.9999V35.3189C35.8944 35.2386 35.8165 35.1272 35.7794 34.9989L35.7782 34.9941C35.7482 34.8719 35.7039 34.7652 35.6439 34.6669L35.6463 34.6717L35.6511 34.6765ZM13.3876 11.6592C13.2326 11.6592 13.0876 11.664 12.9526 11.6736C12.8148 11.6831 12.6865 11.7083 12.5655 11.7491L12.5763 11.7455V11.7742H12.6338C12.7113 11.8901 12.8088 12.0203 12.9262 12.165C13.0437 12.3096 13.1499 12.4498 13.245 12.5856L13.7088 13.542L13.7664 13.5133C13.9018 13.415 14.0061 13.2832 14.0684 13.1286L14.0708 13.1226C14.1331 12.956 14.1691 12.7618 14.1691 12.5605C14.1691 12.5389 14.1691 12.5173 14.1679 12.4957V12.4993C14.1139 12.4466 14.0696 12.3843 14.0384 12.3148L14.0372 12.3112L13.9402 12.093C13.8766 11.9924 13.7879 11.9133 13.6837 11.8629L13.6801 11.8617C13.5674 11.8078 13.4715 11.7395 13.3876 11.6592Z" fill="#5B98F4" stroke="#5B98F4" stroke-width="0.00064"/>
</svg>
