<svg width="42" height="42" viewBox="0 0 42 42" fill="none" xmlns="http://www.w3.org/2000/svg">
<mask id="mask0_511_158" style="mask-type:luminance" maskUnits="userSpaceOnUse" x="5" y="5" width="32" height="32">
<path d="M37 5H5V37H37V5Z" fill="white"/>
</mask>
<g mask="url(#mask0_511_158)">
<path d="M19.9521 5.00861C19.8833 5.01487 19.6643 5.03677 19.4672 5.05241C14.9222 5.46218 10.6649 7.91457 7.96852 11.6839C6.46705 13.7797 5.50675 16.157 5.14389 18.6751C5.01564 19.5541 5 19.8137 5 21.0055C5 22.1973 5.01564 22.4569 5.14389 23.3359C6.01349 29.3449 10.2895 34.3936 16.089 36.2641C17.1275 36.5988 18.2223 36.8272 19.4672 36.9648C19.9521 37.018 22.0479 37.018 22.5328 36.9648C24.6817 36.7271 26.5023 36.1953 28.2977 35.2788C28.5731 35.138 28.6261 35.1005 28.5887 35.0692C28.5636 35.0504 27.3907 33.4771 25.9829 31.5752L23.4243 28.1187L20.218 23.3735C18.4537 20.7647 17.0023 18.6313 16.9898 18.6313C16.9773 18.6281 16.9648 20.7365 16.9585 23.3108C16.9492 27.8184 16.946 27.9999 16.8897 28.1061C16.8084 28.2595 16.7458 28.322 16.6145 28.3908C16.5144 28.4409 16.4268 28.4503 15.9545 28.4503H15.4133L15.2694 28.3596C15.1756 28.3001 15.1067 28.2219 15.0598 28.1312L14.9941 27.9904L15.0004 21.7187L15.0098 15.4438L15.1067 15.3218C15.1568 15.2561 15.2631 15.1717 15.3382 15.131C15.4665 15.0684 15.5165 15.0622 16.0577 15.0622C16.6958 15.0622 16.8021 15.0872 16.9679 15.2686C17.0149 15.3187 18.7509 17.9337 20.828 21.0837C22.9049 24.2336 25.7452 28.5347 27.1404 30.6461L29.6741 34.4843L29.8024 34.3999C30.9379 33.6616 32.1391 32.6105 33.0899 31.5157C35.1137 29.1916 36.4181 26.3576 36.8561 23.3359C36.9844 22.4569 37 22.1973 37 21.0055C37 19.8137 36.9844 19.5541 36.8561 18.6751C35.9865 12.6661 31.7104 7.61741 25.9111 5.74683C24.8881 5.41526 23.7996 5.18691 22.5797 5.04928C22.2793 5.018 20.2117 4.98359 19.9521 5.00861ZM26.5023 14.6868C26.6524 14.7619 26.7744 14.9058 26.8181 15.0559C26.8432 15.1373 26.8495 16.8765 26.8432 20.7959L26.8339 26.4201L25.8423 24.8999L24.8475 23.3797V19.2913C24.8475 16.6481 24.86 15.1623 24.8788 15.0903C24.9288 14.9152 25.0383 14.7775 25.1884 14.6962C25.3167 14.6305 25.3636 14.6243 25.8548 14.6243C26.3177 14.6243 26.3991 14.6305 26.5023 14.6868Z" fill="#5B98F4" stroke="#5B98F4" stroke-width="0.008"/>
</g>
</svg>
