<svg width="42" height="42" viewBox="0 0 42 42" fill="none" xmlns="http://www.w3.org/2000/svg">
<path d="M21.0731 17.2135C20.9212 17.2694 20.8014 17.3638 20.707 17.5044C20.5552 17.7282 20.5552 17.7346 20.544 18.9751L20.5344 20.1005H22.0402L22.0339 18.9415L22.0276 17.7842L21.9509 17.6243C21.8214 17.3526 21.612 17.1975 21.3402 17.1815C21.2395 17.1752 21.161 17.1848 21.0731 17.2135ZM3.89665 17.3046C3.51779 17.3669 3.15013 17.6243 3.05581 17.8897C3.01265 18.0095 3.00945 18.1039 3.00306 21.0452C2.99667 24.5253 2.98068 24.2679 3.19649 24.5013C3.27961 24.594 3.36433 24.6564 3.46344 24.7011C3.59453 24.7619 3.63129 24.7683 3.85029 24.7683C4.07409 24.7683 4.10446 24.7635 4.24673 24.6947C4.44016 24.602 4.56645 24.4757 4.63678 24.3047L4.69273 24.1688L4.70392 21.9308L4.71511 19.6945L5.36093 20.4777C5.71581 20.911 6.52467 21.8957 7.1593 22.6678C8.38059 24.1592 8.66034 24.4661 8.89053 24.5876C9.1495 24.7267 9.31894 24.7667 9.61467 24.7667C10.0271 24.7667 10.2813 24.6628 10.4395 24.423C10.6026 24.1768 10.5946 24.4005 10.5946 20.9749V17.8977L10.5386 17.7618C10.4651 17.5796 10.31 17.4261 10.131 17.3558C10.0255 17.3142 9.94877 17.303 9.77613 17.2998C9.52196 17.2998 9.42285 17.3253 9.24541 17.4293C9.09994 17.5172 8.98644 17.6835 8.94808 17.8673C8.93209 17.9408 8.92249 18.7273 8.92249 20.214C8.92249 21.4449 8.9161 22.4504 8.9065 22.4472C8.89051 22.4472 5.65664 18.5451 5.17868 17.9504C4.94529 17.6627 4.76145 17.4901 4.6 17.4133C4.40178 17.3206 4.08848 17.2726 3.89665 17.3046ZM32.0839 17.3205C31.8553 17.3797 31.6603 17.5459 31.5532 17.7697C31.5164 17.848 31.4973 17.9312 31.4909 18.083C31.4813 18.2636 31.4876 18.3164 31.5388 18.4603C31.6523 18.7832 31.6907 18.8295 32.8161 19.9613C33.4043 20.5512 33.8839 21.0451 33.8839 21.0563C33.8839 21.0674 33.4043 21.5615 32.8161 22.1513C31.6731 23.2991 31.6284 23.3518 31.5276 23.6795C31.4557 23.9209 31.4749 24.1895 31.5788 24.3829C31.8458 24.8833 32.4404 24.9584 33.0303 24.5652C33.0878 24.5284 33.609 24.0232 34.1892 23.4446L35.2427 22.3927L36.2977 23.4446C36.8764 24.0232 37.3975 24.5284 37.4551 24.5652C37.73 24.749 38.0274 24.8417 38.2543 24.8161C38.5501 24.781 38.7739 24.6339 38.9066 24.3829C39.0105 24.1895 39.0281 23.9225 38.9577 23.6796C38.857 23.3519 38.8122 23.2991 37.6693 22.1513C37.081 21.5615 36.6014 21.0675 36.6014 21.0563C36.6014 21.0452 37.081 20.5512 37.6693 19.9613C38.7947 18.8296 38.833 18.7832 38.9465 18.4603C38.9977 18.3148 39.0041 18.2621 38.9945 18.083C38.9882 17.9312 38.972 17.848 38.9322 17.7665C38.7643 17.4164 38.3934 17.2342 37.997 17.3077C37.9219 17.3221 37.7604 17.3813 37.6389 17.4388L37.4199 17.5475L35.2411 19.7167L34.1525 18.6313L33.0623 17.5475L32.8433 17.4388C32.5395 17.2917 32.3157 17.255 32.0808 17.3189L32.0839 17.3205ZM23.7363 17.3589C23.5109 17.4116 23.3255 17.5587 23.2295 17.7697L23.1784 17.8752V24.0984L23.2423 24.2374C23.2775 24.3126 23.343 24.4149 23.3894 24.4612C23.5716 24.6483 23.9521 24.7394 24.3437 24.6898C24.7098 24.6435 24.9608 24.506 25.2629 24.1895C25.3572 24.0888 26.2444 23.0321 27.2339 21.8428L29.0323 19.68L29.0434 21.9116L29.0545 24.1447L29.1104 24.2646C29.2095 24.4884 29.4285 24.6419 29.7035 24.6866C30.0376 24.7426 30.3397 24.6611 30.5331 24.4676C30.7537 24.2486 30.7361 24.5044 30.7457 21.2529C30.752 18.2732 30.749 18.0782 30.653 17.8624C30.5603 17.6434 30.2246 17.418 29.9017 17.3557C29.614 17.2997 29.2463 17.3749 29.0049 17.5347C28.917 17.5923 28.7332 17.7937 28.3463 18.2557C26.8948 19.9917 24.8583 22.4023 24.8455 22.4023C24.8359 22.4056 24.8248 21.3952 24.823 20.1611C24.8167 18.131 24.8119 17.912 24.7766 17.8241C24.6791 17.5843 24.5256 17.442 24.2763 17.3701C24.1404 17.3317 23.8786 17.3236 23.7363 17.3589ZM13.0404 17.4532C12.978 17.5619 11.2084 20.8277 11.1509 20.9412L11.1157 21.0132L12.1468 22.8659L13.1778 24.7218L17.4923 24.7329L18.5522 22.7811L19.612 20.826L18.792 20.8116C17.3197 20.7861 14.9826 20.7891 14.8323 20.8164C14.6277 20.8532 14.4727 20.9379 14.3416 21.0818C13.9452 21.515 14.2105 22.1496 14.8323 22.2647C14.9203 22.2806 15.3838 22.2902 16.1064 22.2902H17.243L16.8897 22.8705L16.5364 23.454L14.1594 23.4651L13.5087 22.2917C13.1539 21.6463 12.8613 21.1044 12.8613 21.0884C12.8613 21.0692 13.1331 20.5561 13.4672 19.9454L14.0714 18.8328H16.6835L17.0703 19.4658L17.4604 20.0973L18.322 20.1006H19.182L19.15 20.0478C19.1308 20.0205 18.76 19.402 18.3252 18.6763L17.5339 17.3575H13.0947L13.0404 17.4532ZM20.544 22.4678C20.5536 24.1048 20.5536 24.1255 20.6031 24.2726C20.6767 24.4932 20.7965 24.6371 20.9852 24.733C21.1818 24.8321 21.3768 24.8417 21.5703 24.7555C21.7253 24.6884 21.8996 24.4997 21.9715 24.3223L22.0242 24.1912L22.0305 22.5175L22.0368 20.8438L21.8114 20.8294C21.6868 20.8198 21.3479 20.8135 21.0601 20.8135H20.5342L20.5405 22.4665L20.544 22.4678Z" fill="#5B98F4"/>
</svg>
