<svg width="42" height="42" viewBox="0 0 42 42" fill="none" xmlns="http://www.w3.org/2000/svg">
<path d="M21.0001 37C20.5684 37.0001 20.1442 36.8866 19.7704 36.6708L15.8572 34.3543C15.2732 34.0274 15.5578 33.912 15.7509 33.8446C16.372 33.6527 16.9667 33.3839 17.5212 33.0446C17.5676 33.0231 17.6187 33.0138 17.6697 33.0176C17.7207 33.0214 17.7699 33.0382 17.8126 33.0663L20.8195 34.8526C20.8755 34.8822 20.9379 34.8977 21.0012 34.8977C21.0645 34.8977 21.1269 34.8822 21.1829 34.8526L32.9086 28.0846C32.9635 28.0517 33.0089 28.0051 33.0403 27.9494C33.0718 27.8937 33.0882 27.8308 33.088 27.7669V14.2286C33.0881 14.1636 33.0714 14.0998 33.0395 14.0431C33.0077 13.9865 32.9618 13.939 32.9063 13.9052L21.1806 7.14293C21.1253 7.11179 21.063 7.09543 20.9995 7.09543C20.936 7.09543 20.8736 7.11179 20.8183 7.14293L9.09953 13.9075C9.04363 13.9405 8.99721 13.9875 8.96478 14.0437C8.93234 14.1 8.91498 14.1637 8.91438 14.2286V27.7612C8.91454 27.825 8.93167 27.8876 8.964 27.9426C8.99633 27.9977 9.04271 28.0431 9.09838 28.0743L12.3144 29.9303C14.0572 30.8011 15.1247 29.7749 15.1247 28.744V15.3829C15.1247 15.292 15.1608 15.2048 15.2251 15.1405C15.2894 15.0762 15.3766 15.04 15.4675 15.04H16.9532C17.0441 15.04 17.1314 15.0762 17.1957 15.1405C17.26 15.2048 17.2961 15.292 17.2961 15.3829V28.7452C17.2961 31.0709 16.0298 32.4023 13.8241 32.4023C12.8725 32.4189 11.9359 32.1644 11.1235 31.6686L8.04124 29.9006C7.66706 29.6827 7.35658 29.3704 7.1408 28.995C6.92502 28.6196 6.81148 28.1942 6.81153 27.7612V14.2286C6.81042 13.7949 6.92347 13.3686 7.13933 12.9925C7.35519 12.6163 7.66624 12.3036 8.04124 12.0858L19.7681 5.3155C20.1458 5.10884 20.5695 5.00052 21.0001 5.00052C21.4306 5.00052 21.8543 5.10884 22.2321 5.3155L33.9577 12.0858C34.3319 12.3032 34.6424 12.615 34.8584 12.9901C35.0744 13.3651 35.1882 13.7902 35.1886 14.2229V27.7612C35.188 28.1942 35.074 28.6195 34.8581 28.9948C34.6421 29.3701 34.3318 29.6824 33.9577 29.9006L22.2321 36.6708C21.8575 36.887 21.4325 37.0005 21.0001 37Z" fill="#5B98F4" stroke="#5B98F4" stroke-width="0.00064"/>
<path d="M18.7759 23.232C18.7759 23.1411 18.812 23.0539 18.8763 22.9896C18.9406 22.9253 19.0278 22.8892 19.1187 22.8892H20.6353C20.7163 22.8894 20.7947 22.9184 20.8564 22.9709C20.9181 23.0234 20.9592 23.0961 20.9724 23.176C21.201 24.72 21.8867 25.4983 24.9873 25.4983C27.457 25.4983 28.5096 24.9395 28.5096 23.6286C28.5096 22.8732 28.2113 22.312 24.3724 21.936C21.1633 21.6183 19.1793 20.9075 19.1793 18.3429C19.1793 15.9772 21.1736 14.5658 24.5164 14.5658C28.273 14.5658 30.1324 15.8698 30.3678 18.6675C30.3714 18.7142 30.3654 18.7611 30.3502 18.8054C30.3349 18.8497 30.3108 18.8904 30.2792 18.925C30.2476 18.9596 30.2092 18.9873 30.1665 19.0065C30.1238 19.0257 30.0775 19.036 30.0307 19.0366H28.5039C28.4273 19.0355 28.3532 19.0088 28.2936 18.9608C28.2339 18.9127 28.1921 18.8461 28.1747 18.7715C27.8101 17.1475 26.9176 16.6286 24.5176 16.6286C21.8204 16.6286 21.5073 17.568 21.5073 18.272C21.5073 19.1246 21.8776 19.3738 25.5187 19.8549C29.1221 20.3315 30.8341 21.0057 30.8341 23.5383C30.8341 26.0937 28.7039 27.5566 24.9884 27.5566C19.8513 27.5634 18.7759 25.208 18.7759 23.232Z" fill="#5B98F4" stroke="#5B98F4" stroke-width="0.00064"/>
</svg>
