<svg width="42" height="42" viewBox="0 0 42 42" fill="none" xmlns="http://www.w3.org/2000/svg">
<path d="M15.73 17.7671C15.0325 16.9688 13.9229 16.5695 12.4018 16.5695H7.34583L5 28.6393H7.62913L8.25285 25.4305H10.5049C11.4987 25.4305 12.3162 25.3263 12.958 25.1172C13.5997 24.9086 14.1831 24.5586 14.708 24.0672C15.1487 23.6622 15.5049 23.2156 15.778 22.7271C16.0507 22.2388 16.2445 21.7 16.3591 21.1107C16.6373 19.6799 16.4273 18.5655 15.73 17.7671ZM13.6414 20.9263C13.4596 21.8604 13.1096 22.5271 12.5909 22.9265C12.0719 23.3261 11.2823 23.5258 10.2224 23.5258H8.62295L9.60474 18.4742H11.4063C12.4052 18.4742 13.0709 18.6585 13.4037 19.0273C13.7362 19.3963 13.8157 20.0292 13.6414 20.9263ZM26.1243 19.8139L25.0328 25.4305H22.3828L23.4206 20.0902C23.5386 19.4826 23.4953 19.0682 23.2901 18.8473C23.0852 18.6263 22.6487 18.5157 21.9813 18.5157H19.8967L18.5529 25.4305H15.9443L18.2901 13.3607H20.8987L20.2751 16.5695H22.5991C24.061 16.5695 25.0696 16.8249 25.6248 17.3347C26.18 17.8448 26.3461 18.6713 26.1243 19.8139ZM36.2519 17.7671C35.5545 16.9688 34.4449 16.5695 32.924 16.5695H27.868L25.5222 28.6393H28.1513L28.7751 25.4305H31.0271C32.0209 25.4305 32.8381 25.3263 33.48 25.1172C34.1217 24.9086 34.705 24.5586 35.23 24.0672C35.6706 23.6622 36.0271 23.2156 36.3001 22.7271C36.5727 22.2388 36.7664 21.7 36.881 21.1107C37.1592 19.6799 36.9495 18.5655 36.2519 17.7671ZM34.1636 20.9263C33.9818 21.8604 33.6319 22.5271 33.1128 22.9265C32.5941 23.3261 31.8043 23.5258 30.7443 23.5258H29.1452L30.1269 18.4742H31.9283C32.9272 18.4742 33.5928 18.6585 33.9259 19.0273C34.2584 19.3963 34.3375 20.0292 34.1636 20.9263Z" fill="#5B98F4"/>
</svg>
