<svg width="42" height="42" viewBox="0 0 42 42" fill="none" xmlns="http://www.w3.org/2000/svg">
<path d="M29.8401 14.523C29.8295 14.6883 29.7526 14.8345 29.6363 14.9359L29.6353 14.9369C29.4955 15.0895 29.3088 15.1962 29.0976 15.2335L29.0922 15.2346C29.0624 15.2388 29.0272 15.242 28.992 15.242C28.9909 15.242 28.9888 15.242 28.9877 15.242C28.6548 15.242 28.3689 15.0404 28.2473 14.7513L28.2451 14.7459C28.2131 14.5102 28.5972 14.332 28.993 14.2765C29.3888 14.221 29.8081 14.2883 29.8401 14.523ZM19.2673 15.0713C19.1382 15.4031 18.8214 15.6347 18.4501 15.6347C18.4458 15.6347 18.4426 15.6347 18.4384 15.6347H18.4394C18.401 15.6347 18.3648 15.6315 18.3274 15.6272H18.3317C18.0532 15.577 17.8164 15.4234 17.6596 15.209L17.6574 15.2058C17.5699 15.1055 17.5166 14.9721 17.5166 14.8281V14.827C17.5294 14.7449 17.5753 14.6745 17.6393 14.6297L17.6403 14.6286C17.8025 14.539 17.9967 14.4867 18.2037 14.4867C18.2922 14.4867 18.3786 14.4963 18.4618 14.5144L18.4544 14.5134C18.8758 14.572 19.3111 14.7716 19.2695 15.0713H19.2673ZM31.0222 23.2255L30.9081 23.0825L30.8611 23.0239C31.3487 22.1213 31.6346 21.0469 31.6346 19.9075C31.6346 19.3869 31.5749 18.8812 31.4618 18.3947L31.4703 18.4395C31.3956 17.9562 31.3519 17.3982 31.3519 16.8306C31.3519 16.8232 31.3519 16.8157 31.3519 16.8082C31.3764 16.2737 31.433 15.7744 31.5205 15.2847L31.5098 15.3551C31.6047 14.8601 31.6592 14.2904 31.6592 13.7079C31.6592 13.6535 31.6592 13.6001 31.6581 13.5468V13.5553C31.6709 13.503 31.6784 13.4444 31.6784 13.3825C31.6784 13.3537 31.6762 13.3259 31.6741 13.2982V13.3014C31.2473 11.6157 30.4461 10.1552 29.3611 8.95599L29.3686 8.96453C28.3966 7.8251 27.2017 6.90651 25.8479 6.27279L25.7838 6.24612C26.5264 6.08715 27.3799 5.99647 28.2547 5.99647C28.3348 5.99647 28.4148 5.99753 28.4948 5.9986H28.4831C28.5311 5.99753 28.5865 5.99647 28.6431 5.99647C31.1801 5.99647 33.4398 7.17964 34.9014 9.02427L34.9142 9.04134C34.9441 9.07975 34.9739 9.12349 34.9996 9.16937L35.0028 9.1747C35.9672 10.982 34.6347 17.5412 31.0212 23.2276L31.0222 23.2255ZM30.7171 13.8754C30.7 14.3608 30.6488 14.8206 30.5677 15.2698L30.5763 15.2111C30.4931 15.6645 30.4333 16.2044 30.4088 16.7527L30.4077 16.7794C30.4077 16.7976 30.4077 16.8178 30.4077 16.8392C30.4077 17.4441 30.4525 18.0383 30.54 18.6187L30.5315 18.5536C30.6221 18.9559 30.6744 19.4167 30.6744 19.8915C30.6744 20.7055 30.5208 21.4844 30.2402 22.1981L30.2551 22.1554C30.1741 22.0157 30.0898 21.8471 30.0162 21.6721L30.0044 21.6412C29.934 21.4716 29.7814 21.1974 29.5713 20.8197C28.7508 19.3474 26.8283 15.9003 27.812 14.4942C28.3177 13.7708 29.6001 13.7399 30.716 13.8764L30.7171 13.8754ZM29.9585 26.2352C29.9041 25.1267 30.317 25.0104 30.7544 24.8877C30.8149 24.8713 30.875 24.8532 30.9347 24.8333C30.9881 24.8802 31.0468 24.9261 31.1076 24.9667L31.1129 24.9699C31.7744 25.2611 32.5447 25.4297 33.3555 25.4297C33.9871 25.4297 34.5941 25.3273 35.1617 25.1374L35.1212 25.1491C34.7542 25.4617 34.336 25.7295 33.8836 25.9365L33.8505 25.9503C33.1635 26.232 32.3665 26.408 31.5322 26.4347H31.5215C31.3946 26.4539 31.2484 26.4656 31.1001 26.4656C30.6883 26.4656 30.2957 26.3803 29.9404 26.2266L29.9596 26.2341L29.9585 26.2352ZM28.7711 28.3967C28.7487 28.6325 28.7231 28.8981 28.689 29.1915L28.4948 29.7762C28.4799 29.8188 28.4713 29.8679 28.4702 29.9191C28.4713 29.9479 28.4713 29.981 28.4713 30.0141C28.4713 30.3928 28.4148 30.7598 28.3102 31.1044L28.3166 31.0777C28.1929 31.4928 28.1075 31.9739 28.0787 32.47L28.0776 32.4871C28.0222 34.2837 26.632 35.7379 24.8685 35.8947L24.8546 35.8958C22.8339 36.3289 22.4755 35.2332 22.1597 34.2667C22.1276 34.1657 22.0935 34.065 22.0572 33.9647C21.8865 33.2691 21.7884 32.47 21.7884 31.6485C21.7884 31.2645 21.8097 30.8857 21.8513 30.5123L21.8471 30.5582C21.8535 30.4216 21.8567 30.2605 21.8567 30.0994C21.8567 29.0048 21.6924 27.9486 21.3862 26.9543L21.4064 27.03C21.4121 26.6388 21.4207 26.2426 21.432 25.8415C21.432 25.8383 21.432 25.833 21.432 25.8287C21.432 25.7796 21.4246 25.7327 21.4107 25.6879L21.4118 25.6911C21.3968 25.5844 21.3766 25.4905 21.3499 25.3998L21.3531 25.4137C21.2027 24.8578 20.8239 24.4097 20.3246 24.1718L20.3129 24.1665C20.1251 24.0726 19.9032 24.0171 19.6674 24.0171C19.5565 24.0171 19.4487 24.0289 19.3452 24.0523L19.3548 24.0502C19.4914 23.5488 19.6322 23.1391 19.7944 22.7401L19.7666 22.818L19.8371 22.6291C19.916 22.4157 20.0152 22.1949 20.1208 21.9613C20.7034 20.7621 21.0437 19.3527 21.0437 17.8634C21.0437 16.8626 20.8901 15.8982 20.6052 14.9913L20.6233 15.0585C20.4281 13.8764 19.4124 12.9856 18.1898 12.9856C17.9978 12.9856 17.81 13.008 17.6307 13.0496L17.6478 13.0464C16.7986 13.1574 16.0304 13.407 15.3316 13.774L15.369 13.7559C15.2808 13.8007 15.1936 13.8469 15.1076 13.8946C15.2047 11.604 16.0635 9.53104 17.4344 7.90405L17.4216 7.91898C17.5475 7.79202 17.6798 7.67147 17.8164 7.55838L17.826 7.55091C17.8996 7.53597 17.9647 7.5061 18.0202 7.46449L18.0191 7.46556C18.9718 6.76782 20.1678 6.34854 21.4619 6.34854C21.5654 6.34854 21.6678 6.35067 21.7692 6.356L21.7553 6.35494C22.3165 6.36347 22.8585 6.40188 23.3919 6.47016L23.3204 6.46269C25.5001 6.88198 27.3607 8.02354 28.689 9.62386L28.7007 9.63879C29.4987 10.5659 30.1452 11.652 30.5848 12.8373L30.6083 12.9109C30.3341 12.8373 30.0194 12.7946 29.695 12.7946C28.6463 12.7946 27.7021 13.2384 27.0385 13.9479L27.0364 13.9501C25.7134 15.8416 27.7608 19.5138 28.7444 21.2785C28.9247 21.6017 29.0805 21.8812 29.1296 21.9997C29.407 22.6409 29.7558 23.1924 30.1751 23.6821L30.1677 23.6736C30.2605 23.7899 30.3501 23.9019 30.4194 24.0001C29.8849 24.1537 28.9247 24.51 29.0122 26.2896C28.9962 26.4976 28.9557 26.8849 28.9013 27.3757C28.8437 27.6627 28.7967 28.0126 28.77 28.3679L28.7679 28.3977L28.7711 28.3967ZM18.9537 22.3005L18.8833 22.4883C18.7371 22.8382 18.5856 23.2831 18.4597 23.7387L18.4394 23.8251C17.4867 23.8112 16.6311 23.4037 16.0272 22.7571L16.0251 22.755C15.3508 22.0434 14.9369 21.08 14.9369 20.0195C14.9369 19.8083 14.9529 19.6013 14.9849 19.3986L14.9817 19.421C15.0852 18.6529 15.1449 17.7663 15.1449 16.8648C15.1449 16.3292 15.1236 15.799 15.083 15.2741L15.0873 15.3434C15.0809 15.2292 15.0745 15.129 15.0713 15.05C15.9301 14.3981 17.0173 14.0045 18.1962 14.0045C18.337 14.0045 18.4757 14.0098 18.6133 14.0205L18.5952 14.0194C19.1863 14.157 19.6311 14.6467 19.7016 15.2495L19.7026 15.2559C19.9565 16.0326 20.1027 16.9267 20.1027 17.8538C20.1027 19.2044 19.7922 20.4826 19.2396 21.622L19.262 21.5708C19.15 21.8194 19.0444 22.0541 18.9537 22.2984V22.3005ZM16.1617 27.6179C15.9429 27.5624 15.7509 27.4813 15.5759 27.3757L15.5855 27.381C15.769 27.3031 15.9856 27.238 16.2097 27.1964L16.2299 27.1932C17.9412 26.8412 18.2047 26.5926 18.7819 25.8596C18.9142 25.6921 19.0636 25.5012 19.2716 25.2697C19.3143 25.2216 19.3484 25.164 19.3687 25.1L19.3698 25.0968C19.597 24.8952 19.7325 24.9507 19.9523 25.0413C20.1945 25.1747 20.3737 25.3998 20.443 25.6676L20.4441 25.6751C20.4686 25.7444 20.4836 25.8234 20.4836 25.9066C20.4836 26.0399 20.4462 26.1648 20.3822 26.2704L20.3844 26.2672C19.6962 27.2082 18.5963 27.8131 17.3555 27.8131C16.9287 27.8131 16.518 27.7416 16.135 27.6093L16.1617 27.6179ZM8.15259 20.8357C7.45805 18.7179 6.8926 16.2054 6.55867 13.6193L6.53626 13.407C6.47118 13.0635 6.43491 12.6677 6.43491 12.2644C6.43491 10.3376 7.27668 8.60819 8.61241 7.42395L8.61881 7.41862C11.0673 5.68707 15.0713 6.69741 16.7623 7.24472L16.7495 7.25752C15.1118 9.25472 14.1186 11.8366 14.1186 14.6489C14.1186 14.7449 14.1196 14.8409 14.1218 14.9369V14.9231C14.1218 15.0329 14.1303 15.1887 14.1431 15.4021C14.1783 15.8395 14.1986 16.3495 14.1986 16.8648C14.1986 17.7204 14.1431 18.5632 14.0343 19.3901L14.045 19.293C14.0098 19.5128 13.9906 19.7667 13.9906 20.0249C13.9906 21.3382 14.5048 22.532 15.3444 23.4143L15.3423 23.4122C15.4497 23.5246 15.5617 23.6302 15.6784 23.7291C15.2164 24.2241 14.2114 25.3187 13.1424 26.6054C12.386 27.5154 11.8632 27.3405 11.6914 27.2839C10.9606 26.8913 10.3877 26.2821 10.0506 25.5438L10.041 25.5204C9.31122 24.1846 8.66896 22.6313 8.19526 21.0053L8.15365 20.8378L8.15259 20.8357ZM36.4014 24.6306C36.3812 24.5698 36.3556 24.5175 36.3246 24.4695L36.3268 24.4727C36.1411 24.1217 35.6909 24.0171 34.9835 24.1633C32.7794 24.6178 31.9259 24.3383 31.6165 24.1377C33.3416 21.5217 34.7296 18.4918 35.6183 15.2548L35.6706 15.0319C36.0323 13.6311 36.7343 10.3344 35.8339 8.72341C35.7709 8.60392 35.7037 8.5015 35.629 8.40548L35.6322 8.40975C33.9647 6.324 31.4202 5 28.5663 5C28.4852 5 28.4041 5.00107 28.3241 5.0032H28.3358C28.291 5.00213 28.2387 5.00213 28.1854 5.00213C26.7536 5.00213 25.3763 5.23685 24.0907 5.66893L24.1814 5.64226C23.9531 5.59959 23.7237 5.56331 23.4933 5.53344C22.9726 5.43422 22.3698 5.37234 21.7532 5.36274H21.7446C21.6561 5.35847 21.5526 5.35634 21.448 5.35634C20.0451 5.35634 18.7403 5.77669 17.6532 6.49897L17.6788 6.48296C16.5361 6.05514 11.2945 4.28946 8.05017 6.58752C6.46158 7.94245 5.46191 9.94499 5.46191 12.1822C5.46191 12.6143 5.49925 13.0379 5.57074 13.4497L5.56433 13.4059C5.92174 16.2844 6.50212 18.8748 7.30548 21.3659L7.2212 21.0629C7.74717 22.8937 8.39797 24.478 9.19706 25.9706L9.13198 25.8383C9.59394 26.8881 10.393 27.7203 11.3895 28.2121L11.4172 28.2249C11.5965 28.2772 11.8024 28.3081 12.0158 28.3081C12.8074 28.3081 13.5009 27.891 13.8892 27.2637L13.8945 27.254C14.9625 25.9695 16.0144 24.8194 16.4871 24.3116C17.0226 24.6093 17.6574 24.7928 18.3338 24.8141H18.3402L18.3413 24.8194C18.2289 24.9531 18.119 25.089 18.0116 25.227C17.5593 25.801 17.4654 25.9194 16.0112 26.2192C15.5973 26.3045 14.4984 26.5307 14.4824 27.301C14.4824 27.3053 14.4824 27.3095 14.4824 27.3149C14.4824 27.4717 14.5283 27.6179 14.6072 27.7405L14.6051 27.7373C14.9379 28.1588 15.4063 28.4607 15.9429 28.578L15.9589 28.5812C16.3846 28.7199 16.8754 28.8 17.3832 28.8C18.5568 28.8 19.6301 28.3753 20.4601 27.6712L20.4537 27.6765C20.4281 28.1225 20.4142 28.6453 20.4142 29.1712C20.4142 31.0415 20.5967 32.8701 20.9434 34.639L20.9146 34.4608C21.3222 35.9257 22.6387 36.9861 24.2049 37H24.207C24.6007 36.9968 24.9815 36.9509 25.3486 36.8677L25.3134 36.8741C27.3607 36.6917 28.9738 35.0551 29.1189 33.0131L29.12 33.0003C29.3206 31.8395 29.6556 29.167 29.838 27.5325C29.8465 27.4632 29.8743 27.4013 29.9148 27.3501L29.9137 27.3511C29.9148 27.3501 30.0066 27.2882 30.4835 27.3917L30.5421 27.4013L30.8803 27.4312L30.9006 27.4322C31.002 27.4365 31.1214 27.4397 31.2409 27.4397C32.3334 27.4397 33.3768 27.2263 34.3296 26.838L34.2751 26.8572C35.134 26.4592 36.682 25.4809 36.4014 24.6306Z" fill="#5B98F4" stroke="#5B98F4" stroke-width="0.00064"/>
</svg>
