<svg width="42" height="42" viewBox="0 0 42 42" fill="none" xmlns="http://www.w3.org/2000/svg">
<path d="M18.5 6C15.7388 6 13.5 8.23875 13.5 11V12.25H19.75C20.44 12.25 21 12.81 21 13.5C21 14.19 20.44 14.75 19.75 14.75H13.5H12.25H11C8.23875 14.75 6 16.9888 6 19.75V24.75C6 27.5113 8.23875 29.75 11 29.75H12.25V23.5C12.25 21.4325 13.9325 19.75 16 19.75H26C26.69 19.75 27.25 19.19 27.25 18.5V11C27.25 8.23875 25.0113 6 22.25 6H18.5ZM17.25 8.5C17.94 8.5 18.5 9.06 18.5 9.75C18.5 10.44 17.94 11 17.25 11C16.56 11 16 10.44 16 9.75C16 9.06 16.56 8.5 17.25 8.5ZM29.75 12.25V18.5C29.75 20.5675 28.0675 22.25 26 22.25H16C15.31 22.25 14.75 22.81 14.75 23.5V31C14.75 33.7613 16.9888 36 19.75 36H23.5C26.2613 36 28.5 33.7613 28.5 31V29.75H22.25C21.56 29.75 21 29.19 21 28.5C21 27.81 21.56 27.25 22.25 27.25H28.5H29.75H31C33.7613 27.25 36 25.0113 36 22.25V17.25C36 14.4887 33.7613 12.25 31 12.25H29.75ZM24.75 31C25.44 31 26 31.56 26 32.25C26 32.94 25.44 33.5 24.75 33.5C24.06 33.5 23.5 32.94 23.5 32.25C23.5 31.56 24.06 31 24.75 31Z" fill="#5B98F4"/>
</svg>
