<svg width="42" height="42" viewBox="0 0 42 42" fill="none" xmlns="http://www.w3.org/2000/svg">
<path d="M18.9752 28.4553C19.6354 28.4853 20.31 28.5069 20.993 28.5069C21.6832 28.5069 22.3649 28.4925 23.0335 28.4553C22.3649 29.3195 21.7048 30.0841 21.0062 30.8127L21.0158 30.8031C20.3208 30.0829 19.6534 29.3171 19.0245 28.5201L18.9752 28.4553ZM12.1359 27.495C13.4358 27.8251 15.0214 28.106 16.6394 28.2788L16.7967 28.292C17.7869 29.652 18.788 30.8487 19.8623 31.9746L19.8491 31.9602C18.2755 33.7162 16.1521 34.9502 13.7503 35.3931L13.6843 35.4027C13.6795 35.4027 13.6747 35.4027 13.6699 35.4027C13.3722 35.4027 13.0913 35.3295 12.8452 35.1998L12.8548 35.2046C11.8562 34.6345 11.4229 32.4535 11.7602 29.6508C11.8406 28.9606 11.9726 28.2344 12.1347 27.4938L12.1359 27.495ZM29.8801 27.4794C30.0217 28.0484 30.155 28.7734 30.2498 29.5103L30.2606 29.6136C30.6051 32.4151 30.1802 34.5937 29.1899 35.1758C28.9691 35.2983 28.705 35.3703 28.4241 35.3703C28.3965 35.3703 28.3689 35.3691 28.3413 35.3679H28.3449C25.8807 34.9178 23.7585 33.6922 22.1885 31.9578L22.1801 31.9482C23.2352 30.8403 24.229 29.646 25.1401 28.3893L25.2097 28.2884C26.9813 28.1036 28.5694 27.8179 30.1166 27.4278L29.8801 27.4782V27.4794ZM13.539 22.9998C13.8391 23.588 14.1536 24.1738 14.4993 24.7619C14.8442 25.3469 15.1967 25.9182 15.5568 26.4759C14.5149 26.3235 13.509 26.1315 12.5476 25.8974C12.8176 24.9528 13.1561 23.9745 13.5378 22.9974L13.539 22.9998ZM28.4565 22.9698C28.8538 23.9553 29.1911 24.9383 29.4708 25.8914C28.5105 26.1267 27.4963 26.3259 26.4472 26.4759C26.8073 25.913 27.1674 25.3333 27.5047 24.7391C27.842 24.1545 28.1577 23.5568 28.4589 22.9686L28.4565 22.9698ZM10.9403 16.5494C11.4637 18.3234 12.0254 19.807 12.6796 21.2378L12.5896 21.0193C12.0302 22.2256 11.4769 23.7008 11.0232 25.2192L10.9607 25.4653C10.1133 25.2048 9.43155 24.9492 8.76777 24.6623L8.90581 24.7151C6.30833 23.6096 4.62789 22.156 4.62789 21.0037C4.62789 19.8514 6.30833 18.3906 8.90581 17.2899C9.53598 17.0199 10.2274 16.7762 10.9403 16.5494ZM31.0324 16.5433C31.7586 16.7678 32.4488 17.0187 33.0945 17.2899C35.692 18.4002 37.3725 19.8514 37.3725 21.0037C37.3653 22.156 35.6848 23.6132 33.0873 24.7163C32.4572 24.9864 31.767 25.2288 31.0552 25.4557C30.5271 23.6756 29.9653 22.1932 29.3136 20.7601L29.4048 20.9857C29.9617 19.7806 30.5163 18.3054 30.9688 16.787L31.0324 16.5397V16.5433ZM26.4376 15.5315C27.4807 15.6863 28.4853 15.876 29.4468 16.1124C29.1767 17.0607 28.8394 18.0353 28.4565 19.0124C28.1565 18.4278 27.842 17.8385 27.4963 17.2515C27.159 16.6634 26.7989 16.0908 26.4388 15.5327L26.4376 15.5315ZM15.5484 15.5315C15.1883 16.0968 14.8282 16.6754 14.4921 17.2719C14.1548 17.8565 13.8391 18.4446 13.539 19.0328C13.1417 18.0485 12.8044 17.0679 12.5248 16.1124C13.485 15.888 14.4969 15.6875 15.5471 15.5339L15.5484 15.5315ZM21.0002 15.1498C22.1105 15.1498 23.216 15.2002 24.3034 15.289C24.9124 16.162 25.5038 17.0919 26.0775 18.0786C26.6353 19.0388 27.1442 20.0119 27.6043 20.9977C27.1422 21.9808 26.6357 22.9626 26.0847 23.9229C25.5146 24.9131 24.9252 25.8554 24.3142 26.728C23.222 26.8228 22.1153 26.8745 20.999 26.8745C19.8887 26.8745 18.7832 26.8216 17.6957 26.7352C17.0872 25.8626 16.493 24.9287 15.9216 23.9457C15.3639 22.9854 14.855 22.0124 14.3948 21.0265C14.8498 20.0411 15.3635 19.0568 15.9144 18.0954C16.4846 17.1051 17.0739 16.1665 17.6849 15.2938C18.7772 15.1978 19.8839 15.1474 21.0002 15.1474V15.1498ZM20.9774 11.2116C21.6736 11.9317 22.3409 12.6963 22.9687 13.4934L23.0167 13.557C22.3565 13.527 21.682 13.5066 20.999 13.5066C20.3088 13.5066 19.627 13.521 18.9584 13.557C19.6258 12.6927 20.286 11.9281 20.9858 11.1996L20.9762 11.2092L20.9774 11.2116ZM13.6543 6.63596C16.1185 7.08727 18.2395 8.3128 19.8107 10.046L19.8191 10.0557C18.764 11.1647 17.7701 12.3591 16.8591 13.6182L16.7895 13.719C15.019 13.9027 13.431 14.1859 11.885 14.576L12.1203 14.5256C11.9522 13.791 11.8274 13.0792 11.7398 12.3963C11.3953 9.59473 11.8202 7.41616 12.8104 6.83641C13.0577 6.71998 13.347 6.64796 13.6519 6.63836H13.6555L13.6543 6.63596ZM28.3101 6.60595V6.61555C28.3257 6.61555 28.3437 6.61435 28.3629 6.61435C28.6498 6.61435 28.9199 6.68517 29.1575 6.81L29.1479 6.8052C30.1466 7.37775 30.5799 9.55752 30.2426 12.3615C30.1622 13.0516 30.0301 13.779 29.8681 14.5208C28.5658 14.1871 26.9801 13.9051 25.3621 13.7334L25.2085 13.7202C24.217 12.3591 23.216 11.1623 22.1417 10.0352L22.1561 10.0496C23.7297 8.29719 25.8494 7.06327 28.2465 6.61795L28.3137 6.60715L28.3101 6.60595ZM28.3173 4.97112C25.3861 5.41644 22.8487 6.84001 20.9954 8.89375L20.9858 8.90455C19.1193 6.85201 16.5818 5.43804 13.7227 5.00953L13.6555 5.00113C13.6398 5.00113 13.6206 5.00113 13.6014 5.00113C13.0121 5.00113 12.4587 5.15597 11.9798 5.42724L11.9966 5.41884C9.93448 6.60835 9.47236 10.3149 10.537 14.9661C5.97104 16.3765 3.00146 18.6307 3.00146 21.0061C3.00146 23.3911 5.98665 25.6513 10.5658 27.0509C9.50957 31.7201 9.98129 35.4327 12.0482 36.621C12.502 36.8815 13.0469 37.0339 13.6266 37.0339C13.6531 37.0339 13.6795 37.0339 13.7047 37.0327H13.7011C16.6322 36.5874 19.1697 35.1626 21.023 33.1077L21.0326 33.0969C22.8991 35.1506 25.4365 36.5646 28.2957 36.9931L28.3629 37.0015C28.3809 37.0015 28.4037 37.0015 28.4253 37.0015C29.0111 37.0015 29.562 36.8479 30.0385 36.5802L30.0217 36.5886C32.0827 35.4003 32.546 31.6937 31.4813 27.0413C36.0305 25.6429 39.0001 23.3839 39.0001 21.0049C39.0001 18.6199 36.0149 16.3597 31.4357 14.9565C32.492 10.2921 32.0203 6.57594 29.9533 5.38643C29.4948 5.12356 28.9451 4.96872 28.3593 4.96872C28.3437 4.96872 28.3281 4.96872 28.3125 4.96872H28.3149L28.3173 4.97112ZM24.3455 21.0061C24.3455 22.8582 22.8439 24.3598 20.9918 24.3598C19.1397 24.3598 17.6381 22.8582 17.6381 21.0061C17.6381 19.154 19.1397 17.6524 20.9918 17.6524C21.9184 17.6524 22.7562 18.0281 23.3636 18.6343C23.971 19.2417 24.3455 20.0795 24.3455 21.0061Z" fill="#5B98F4" stroke="#5B98F4" stroke-width="0.00064"/>
</svg>
