<svg width="42" height="42" viewBox="0 0 42 42" fill="none" xmlns="http://www.w3.org/2000/svg">
<path d="M21.1888 23.981C20.6571 24.2253 20.0746 24.5436 18.9084 25.1836C18.4663 25.4323 18.0042 25.681 17.5743 25.9153C17.5444 25.8855 17.5135 25.8479 17.4836 25.817C15.1768 23.352 10.9101 21.6111 11.0914 18.3006C11.1588 17.0946 11.5733 13.9289 19.2853 10.0845C25.6323 6.95636 30.6826 7.82295 31.5547 9.74516C32.8082 12.4853 28.8477 17.5843 22.293 18.3238C21.5676 18.4709 20.8183 18.4532 20.1006 18.2718C19.383 18.0904 18.7153 17.7501 18.1468 17.2759C17.7998 16.899 17.7478 16.8769 17.6196 16.952C17.4085 17.0626 17.5444 17.4041 17.6196 17.5998C17.8696 18.0525 18.2079 18.4504 18.6143 18.7702C19.0208 19.0899 19.4873 19.3248 19.9861 19.4612C22.5656 20.0187 25.255 19.7523 27.675 18.6996C31.6476 17.1621 34.7492 12.8877 33.8406 9.30412C32.9287 5.67084 26.8979 4.47264 21.1921 6.49985C17.6188 7.70401 14.3174 9.59959 11.476 12.0786C8.33243 15.0188 7.83502 17.5744 8.0384 18.6443C8.77015 22.4434 14.0073 24.9161 16.1075 26.7477C15.9969 26.8085 15.9041 26.8582 15.8212 26.9057C14.7733 27.4263 10.7786 29.5144 9.78265 31.7228C8.65187 34.2254 9.96392 36.0193 10.8305 36.2603C12.1365 36.5731 13.5075 36.4703 14.7522 35.9662C15.9969 35.462 17.0531 34.5818 17.7732 33.4483C18.3848 32.5084 18.7603 31.4347 18.8679 30.3185C18.9755 29.2023 18.8119 28.0767 18.3911 27.0373C18.6394 26.8392 18.9042 26.6628 19.1825 26.51C19.7175 26.1939 20.2271 25.8822 20.6792 25.6412C22.2271 24.9162 23.9163 24.5428 25.6256 24.548C29.2136 24.9703 29.9221 27.2086 29.7862 28.1515C29.7226 28.486 29.5881 28.803 29.3917 29.0812C29.1953 29.3594 28.9416 29.5922 28.6477 29.7642C28.399 29.9222 28.3161 29.9753 28.3382 30.088C28.368 30.2538 28.4885 30.2461 28.6996 30.2163C29.2387 30.0459 29.7136 29.7164 30.062 29.2712C30.4104 28.8259 30.6159 28.2857 30.6517 27.7215C30.7622 25.5108 28.6543 23.0856 24.9226 23.1077C23.8053 23.1097 22.699 23.3301 21.6663 23.7566C21.5005 23.8251 21.3395 23.8988 21.1832 23.9777L21.1888 23.981ZM15.8554 32.6458C14.6639 33.9424 13.0058 34.4321 12.2896 34.0176C11.5158 33.5754 11.822 31.6576 13.2844 30.2859C14.1505 29.5055 15.0866 28.8066 16.0809 28.1979C16.2545 28.0873 16.5109 27.9414 16.8193 27.7557C16.8724 27.7259 16.9022 27.7104 16.9022 27.7104L17.0835 27.5999C17.3443 28.4743 17.368 29.4024 17.1523 30.289C16.9365 31.1757 16.4889 31.989 15.8554 32.6458Z" fill="#5B98F4"/>
</svg>
