<svg width="42" height="42" viewBox="0 0 42 42" fill="none" xmlns="http://www.w3.org/2000/svg">
<path d="M26.2489 8.77811C26.2222 8.77811 26.1689 8.80585 26.1454 8.80585C26.1219 8.80585 25.7602 8.90615 25.1936 9.08541C24.6292 7.44112 23.6251 5.92487 21.8495 5.92487H21.6959C21.316 5.39135 20.7132 5.0371 20.0271 4.99869H20.0217C15.8806 4.99869 13.9012 10.1685 13.2813 12.7933C11.6893 13.2799 10.5305 13.6416 10.4014 13.6918C9.50081 13.9756 9.47626 14.0012 9.3717 14.8516C9.27139 15.4673 6.9314 33.6036 6.9314 33.6036L25.0133 37L26.2489 8.77811ZM22.2593 7.05912C23.1844 7.15729 23.7809 8.21472 24.165 9.39912C23.6998 9.55064 23.1844 9.70749 22.621 9.88675V9.55064C22.6221 9.49835 22.6231 9.43647 22.6231 9.37458C22.6231 8.5455 22.4898 7.74843 22.2444 7.0015L22.2593 7.05486V7.05912ZM21.5401 10.0383V10.2186C20.535 10.528 19.4295 10.8642 18.3476 11.2003C18.6293 9.48555 19.6675 8.05893 21.1005 7.25332L21.1282 7.23945C21.3929 7.99171 21.5454 8.8592 21.5454 9.76298C21.5454 9.86008 21.5433 9.95718 21.5401 10.0543V10.0404V10.0383ZM19.8937 6.10627C20.0964 6.10627 20.2853 6.17349 20.4357 6.28766L20.4336 6.28553C18.5674 7.40377 17.2891 9.3383 17.0917 11.5823L17.0895 11.6079C16.2146 11.8917 15.3652 12.1478 14.5703 12.3783C15.2617 9.99773 16.9348 6.118 19.8926 6.118L19.8937 6.10627ZM20.6139 20.0737C19.9225 19.7322 19.1115 19.5252 18.2547 19.5082H18.2494C16.3202 19.5082 16.2444 20.716 16.2444 21.0298C16.2444 22.673 20.5648 23.3164 20.5648 27.2025C20.5798 27.3391 20.5873 27.4981 20.5873 27.6581C20.5873 30.1753 18.5471 32.2154 16.03 32.2154C16.0278 32.2154 16.0246 32.2154 16.0225 32.2154C15.9691 32.2176 15.9073 32.2176 15.8454 32.2176C14.057 32.2176 12.4447 31.4674 11.3052 30.2649L11.302 30.2617L12.163 27.48C12.9889 28.2055 14.025 28.7113 15.1689 28.897L15.2041 28.9012C15.2169 28.9012 15.2308 28.9023 15.2457 28.9023C15.935 28.9023 16.4952 28.3474 16.5048 27.6592C16.5048 25.5006 12.9655 25.3992 12.9655 21.846C12.9655 21.8247 12.9655 21.7991 12.9655 21.7735C12.9655 18.5446 15.5829 15.9283 18.8106 15.9283C19.0187 15.9283 19.2247 15.939 19.4274 15.9603L19.4018 15.9582C19.4839 15.9539 19.58 15.9507 19.6771 15.9507C20.4838 15.9507 21.2499 16.131 21.9349 16.4533L21.9029 16.4394L20.6427 20.0598L20.6139 20.0737ZM25.4497 36.9733L35.0711 34.8915C35.0711 34.8915 31.599 11.4062 31.5713 11.2504C31.5521 11.1085 31.4347 10.9997 31.2906 10.9943C31.1615 10.9943 28.718 10.8129 28.718 10.8129C28.718 10.8129 27.0182 9.11422 26.7995 8.93176C26.7536 8.89015 26.7003 8.85707 26.6416 8.83466L26.6384 8.8336L25.4198 36.9733H25.4497Z" fill="#5B98F4" stroke="#5B98F4" stroke-width="0.00064"/>
</svg>
