<svg width="42" height="42" viewBox="0 0 42 42" fill="none" xmlns="http://www.w3.org/2000/svg">
<path d="M11.8125 17.9813C13.0375 13.0813 16.1 10.6313 21 10.6313C28.35 10.6313 29.2688 16.1438 32.9438 17.0625C35.3938 17.675 37.5375 16.7563 39.375 14.3063C38.15 19.2063 35.0875 21.6563 30.1875 21.6563C22.8375 21.6563 21.9187 16.1438 18.2437 15.225C15.7937 14.6125 13.65 15.5313 11.8125 17.9813ZM2.625 29.0063C3.85 24.1063 6.9125 21.6563 11.8125 21.6563C19.1625 21.6563 20.0813 27.1688 23.7563 28.0875C26.2063 28.7 28.35 27.7813 30.1875 25.3313C28.9625 30.2313 25.9 32.6813 21 32.6813C13.65 32.6813 12.7313 27.1688 9.05625 26.25C6.60625 25.6375 4.4625 26.5563 2.625 29.0063Z" fill="#5B98F4"/>
</svg>
