<svg width="45" height="45" viewBox="0 0 45 45" fill="none" xmlns="http://www.w3.org/2000/svg">
<path d="M23 5C13.0595 5 5 13.0595 5 23C5 32.9405 13.0595 41 23 41C32.9405 41 41 32.9405 41 23C41 13.0595 32.9405 5 23 5ZM32.696 19.3025C32.705 19.502 32.7095 19.7 32.7095 19.898C32.7095 26 28.067 33.032 19.5755 33.032C16.967 33.032 14.5415 32.2685 12.5 30.9575C12.8615 31.001 13.229 31.0205 13.6025 31.0205C15.767 31.0205 17.756 30.284 19.334 29.0435C17.3135 29.006 15.608 27.671 15.0215 25.838C15.3035 25.892 15.593 25.9205 15.89 25.9205C16.3115 25.9205 16.721 25.8635 17.1065 25.7585C14.9945 25.3355 13.403 23.4695 13.403 21.233C13.403 21.2135 13.403 21.194 13.403 21.1745C14.0255 21.521 14.7365 21.728 15.494 21.752C14.2565 20.9255 13.4405 19.511 13.4405 17.9105C13.4405 17.063 13.667 16.2695 14.0645 15.59C16.3415 18.383 19.7435 20.222 23.579 20.414C23.501 20.0765 23.4605 19.724 23.4605 19.3625C23.4605 16.814 25.5275 14.7455 28.076 14.7455C29.4035 14.7455 30.6035 15.3065 31.445 16.2035C32.4965 15.995 33.485 15.6125 34.3775 15.083C34.0325 16.1615 33.3005 17.0645 32.3465 17.6375C33.2795 17.5265 34.169 17.279 34.9985 16.9115C34.382 17.8385 33.6005 18.65 32.696 19.3025Z" fill="white"/>
</svg>
