<svg width="42" height="42" viewBox="0 0 42 42" fill="none" xmlns="http://www.w3.org/2000/svg">
<path d="M34.5943 6H7.40571C6.62936 6 6 6.62936 6 7.40571V34.5943C6 35.3706 6.62936 36 7.40571 36H34.5943C35.3706 36 36 35.3706 36 34.5943V7.40571C36 6.62936 35.3706 6 34.5943 6Z" fill="#5B98F4" stroke="#5B98F4" stroke-width="0.00064"/>
<path fill-rule="evenodd" clip-rule="evenodd" d="M23.4053 29.3132V32.6003C24.0026 32.8951 24.6391 33.1026 25.2953 33.2164C26.0537 33.3564 26.8234 33.4253 27.5946 33.4221C28.3462 33.4257 29.0961 33.3499 29.8317 33.1961C30.4923 33.0626 31.1225 32.8083 31.6907 32.4461C32.2182 32.1056 32.6529 31.6395 32.956 31.0896C33.4988 29.9511 33.5704 28.6443 33.1553 27.4532C32.9801 27.0078 32.7191 26.6012 32.3871 26.2564C32.0307 25.8898 31.6259 25.5737 31.1839 25.3168C30.675 25.0187 30.1463 24.756 29.6014 24.5303C29.1728 24.3525 28.7871 24.1796 28.4442 24.0118C28.1397 23.866 27.8483 23.6943 27.5732 23.4986C27.3577 23.3475 27.1705 23.1596 27.0203 22.9436C26.8905 22.7474 26.8229 22.5166 26.8264 22.2814C26.8235 22.065 26.8838 21.8523 27 21.6696C27.1261 21.4784 27.2943 21.3186 27.4917 21.2025C27.7331 21.0604 27.9957 20.958 28.2696 20.8993C28.6058 20.8246 28.9495 20.7886 29.2939 20.7921C29.5835 20.7931 29.8728 20.8139 30.1596 20.8543C30.4693 20.8962 30.7758 20.9595 31.0767 21.0439C31.3828 21.1288 31.6822 21.2362 31.9725 21.3653C32.2541 21.4909 32.5234 21.6422 32.7771 21.8175V18.75C32.249 18.5502 31.7013 18.4065 31.1432 18.3214C30.4691 18.2233 29.7886 18.1771 29.1075 18.1832C28.3629 18.1792 27.6206 18.2637 26.896 18.435C26.2411 18.5846 25.6184 18.8507 25.0575 19.2203C24.5364 19.5675 24.1062 20.0344 23.8028 20.5821C23.4813 21.1904 23.3223 21.8712 23.341 22.5589C23.3173 23.4683 23.6168 24.3567 24.1864 25.0661C24.8852 25.8526 25.7663 26.4556 26.7525 26.8221C27.2025 27.0078 27.6221 27.1896 28.0114 27.3675C28.3626 27.5238 28.7002 27.7091 29.0207 27.9214C29.2791 28.0896 29.5061 28.3017 29.6914 28.5482C29.8543 28.7718 29.9407 29.042 29.9378 29.3186C29.9393 29.5258 29.8861 29.7298 29.7835 29.91C29.6696 30.1036 29.5095 30.2659 29.3175 30.3825C29.0772 30.529 28.8144 30.6347 28.5396 30.6953C28.1817 30.7754 27.8156 30.8131 27.4489 30.8078C26.7292 30.8065 26.0153 30.6796 25.3392 30.4329C24.633 30.178 23.978 29.7988 23.4053 29.3132ZM17.8832 21.1296H22.1689V18.4221H10.2192V21.1296H14.4857V33.1875H17.8832V21.1296Z" fill="white" stroke="#5B98F4" stroke-width="0.00064"/>
</svg>
