<svg width="42" height="42" viewBox="0 0 42 42" fill="none" xmlns="http://www.w3.org/2000/svg">
<path d="M29.4436 5.2223H26.4376C25.8634 5.2223 25.3285 5.51428 25.018 5.99727L21 12.2475L16.982 5.99727C16.6715 5.51428 16.1367 5.2223 15.5625 5.2223H4.6875C4.08245 5.2223 3.52371 5.54623 3.22306 6.07131C2.92242 6.59637 2.9259 7.24221 3.23217 7.76401L19.5447 35.5556C19.8477 36.072 20.4014 36.389 21 36.389C21.5986 36.389 22.1523 36.072 22.4553 35.5556L38.7678 7.76401C39.074 7.24221 39.0776 6.59637 38.777 6.07131C38.4762 5.54623 37.9175 5.2223 37.3125 5.2223H29.4753C29.4647 5.22221 29.4542 5.22221 29.4436 5.2223ZM11.5724 8.5973L21 24.7589L30.4275 8.5973H34.3652L21 31.3679L7.63471 8.5973H11.5724Z" fill="#5B98F4"/>
</svg>
